/* XPM */
static char *lyricue-icon[] = {
/* columns rows colors chars-per-pixel */
"32 32 3 1",
"  c black",
". c red",
"X c None",
/* pixels */
"XXXXXXXXXXXXXXX...XXXXXXXXXXXXXX",
"XXXXXXXXXXXXXX....XXXXXXXXXXXXXX",
"XXXXXXXXXXXXX.....XXXXXXXXXXXXXX",
"XXXXXXXXXXXXX......XXXXXXXXXXXXX",
"XXXXXXXXXXXX.......XXXXXXXXXXXXX",
"XXXXXXXXXXX........XXXXXXXXXXXXX",
"XXXXXXXXXXX........XXXXXXXXXXXXX",
"XXXXXXXXXX.........XXXXXXXXXXXXX",
"XXXXXXXXXX.........XXXXXXXXXXXXX",
"XXXXXXXXX..........XXXXXXXXXXXXX",
"XXXXXXXX...........XXXXXX...XXXX",
"XXXXXXXX...........XXXXX.....XXX",
"XXXXXXX............XXX.......XXX",
"XXXXXXX......................XXX",
"XXXXXX.......................XXX",
"XXXXXX.......................XXX",
"XXXXX........................XXX",
"XXXXX........................XXX",
"XXXX.........................XXX",
"XXXX.............XX..........XXX",
"XXXX............XXX..........XXX",
"XXX...........XXXXX..........XXX",
"XXX..........XXXXXXX.........XXX",
"XX..........XXXXXXXX.........XXX",
"XX.........XXXXXXXXXX.......XXXX",
"XX........XXX     XXXXX...XXXXXX",
"XX.......XXXX     XXXXXXXXXXXXXX",
"XX......XXXX       XXXXXXXXXXXXX",
"XX.....XXXXX       XXXXXXXXXXXXX",
"XX....XXXXXX       XXXXXXXXXXXXX",
"XXXXXXXXXXXX       XXXXXXXXXXXXX",
"XXXXXXXXXXXXX     XXXXXXXXXXXXXX"
};
