<?xml version="1.0" encoding="iso-8859-1"?>
<!-- Copyright Browell Creative Advertising 2004 Luke@Browell.info for distribution with the Lyric Display System Lyricue under the GNU Public Licence  -->
<!DOCTYPE svg PUBLIC "-//W3C//DTD SVG 20000303 Stylable//EN"   "http://www.w3.org/TR/2000/03/WD-SVG-20000303/DTD/svg-20000303-stylable.dtd" [
	<!ENTITY st0 "fill:#FF0000;stroke:none;">
	<!ENTITY st1 "fill-rule:nonzero;clip-rule:nonzero;stroke:#000000;stroke-miterlimit:4;">
	<!ENTITY st2 "stroke:none;">
]>
<svg  width="280.824pt" height="63.673pt" viewBox="0 0 280.824 63.673" xml:space="preserve">
	<g id="Layer_x0020_1" style="&st1;">
		<path style="&st2;" d="M138.416,52.472c0.037,0,0.055,0.018,0.055,0.055v1.789c0,0.041-0.018,0.061-0.055,0.061h-0.424c-0.037,0-0.057-0.016-0.057-0.043l-0.228-1.293c0-0.031-0.018-0.045-0.055-0.045h-1.85c-0.03,0-0.045,0.018-0.045,0.055v6.541
			c0,0.033,0.019,0.053,0.056,0.057l1.081,0.088c0.041,0.004,0.061,0.025,0.061,0.063v0.295c0,0.037-0.02,0.055-0.061,0.055h-3.271c-0.041,0-0.061-0.018-0.061-0.055v-0.295c0-0.037,0.02-0.059,0.061-0.063l1.081-0.088c0.038-0.004,0.055-0.023,0.055-0.057V53.05
			c0-0.037-0.015-0.055-0.044-0.055h-1.85c-0.037,0-0.056,0.014-0.056,0.045l-0.229,1.293c0,0.027-0.019,0.043-0.056,0.043h-0.423c-0.037,0-0.056-0.02-0.056-0.061v-1.789c0-0.037,0.019-0.055,0.056-0.055h6.313z"/>
		<path style="&st2;" d="M140.381,52.097c0.021-0.008,0.041-0.012,0.055-0.012h0.336c0.037,0,0.055,0.018,0.055,0.057v3.48c0.598-0.412,1.184-0.619,1.756-0.619c0.984,0,1.477,0.553,1.477,1.656v2.947c0,0.037,0.018,0.055,0.055,0.055l0.742,0.078
			c0.037,0,0.055,0.021,0.055,0.063v0.283c0,0.037-0.018,0.055-0.055,0.055h-2.502c-0.037,0-0.057-0.018-0.057-0.055v-0.283c0-0.041,0.02-0.063,0.057-0.063l0.719-0.078c0.041,0,0.061-0.018,0.061-0.055v-2.613c0-0.82-0.355-1.23-1.064-1.23
			c-0.268,0-0.574,0.053-0.918,0.154c-0.105,0.031-0.193,0.066-0.268,0.107c-0.037,0.014-0.057,0.037-0.057,0.066v3.516c0,0.037,0.02,0.055,0.057,0.055l0.719,0.078c0.037,0,0.055,0.021,0.055,0.063v0.283c0,0.037-0.018,0.055-0.055,0.055h-2.559
			c-0.037,0-0.055-0.018-0.055-0.055v-0.283c0-0.041,0.018-0.063,0.055-0.063l0.803-0.078c0.037,0,0.057-0.018,0.057-0.055v-6.758c0-0.037-0.02-0.057-0.057-0.057l-0.891-0.088c-0.037,0-0.057-0.021-0.057-0.063V52.38c0-0.037,0.016-0.057,0.045-0.057l1.438-0.227z"
			/>
		<path style="&st2;" d="M146.607,57.558c0.016,0.621,0.16,1.113,0.436,1.482c0.316,0.42,0.77,0.629,1.365,0.629c0.475,0,0.92-0.129,1.338-0.389c0.014-0.016,0.027-0.02,0.037-0.012c0.008,0.012,0.018,0.021,0.029,0.033l0.16,0.277
			c0.008,0.035-0.002,0.061-0.033,0.078c-0.648,0.436-1.307,0.652-1.971,0.652c-0.744,0-1.328-0.23-1.756-0.689c-0.42-0.447-0.629-1.043-0.629-1.789c0-0.766,0.203-1.41,0.611-1.934c0.447-0.574,1.041-0.863,1.783-0.863c0.658,0,1.158,0.188,1.5,0.563
			c0.33,0.365,0.494,0.877,0.494,1.537c0,0.119-0.006,0.242-0.021,0.369c0,0.035-0.02,0.055-0.057,0.055h-3.287 M147.873,55.542c-0.594,0-0.979,0.33-1.152,0.99c-0.053,0.197-0.086,0.391-0.102,0.58h2.33c0.033-1.049-0.326-1.57-1.076-1.57z"/>
		<path style="&st2;" d="M158.139,52.302c0.396,0,0.912,0.063,1.543,0.189c0.094,0.018,0.242,0.047,0.445,0.082c0.037,0.008,0.057,0.027,0.057,0.057v1.727c0,0.037-0.02,0.057-0.057,0.057h-0.445c-0.037,0-0.055-0.016-0.055-0.045l-0.229-1.281
			c0-0.023-0.018-0.041-0.051-0.055c-0.654-0.146-1.082-0.219-1.287-0.219c-1,0-1.785,0.291-2.359,0.873c-0.574,0.58-0.861,1.371-0.861,2.371c0,1.01,0.277,1.871,0.83,2.584c0.602,0.771,1.395,1.158,2.379,1.158c0.279,0,0.66-0.051,1.143-0.15v-2.307
			c0-0.037-0.018-0.057-0.055-0.057l-0.977-0.088c-0.037,0-0.055-0.023-0.055-0.072v-0.273c0-0.045,0.021-0.066,0.066-0.066h2.914c0.045,0,0.066,0.021,0.066,0.066v0.273c0,0.049-0.018,0.072-0.055,0.072l-0.859,0.088c-0.029,0-0.049,0.012-0.055,0.035v2.656
			c0,0.023-0.02,0.043-0.057,0.063c-0.795,0.182-1.537,0.271-2.229,0.271c-1.195,0-2.184-0.363-2.963-1.09c-0.799-0.744-1.199-1.707-1.199-2.893c0-0.799,0.199-1.51,0.598-2.137c0.396-0.625,0.957-1.105,1.682-1.439c0.654-0.301,1.361-0.451,2.123-0.451z"/>
		<path style="&st2;" d="M161.617,52.527c0-0.037,0.018-0.055,0.057-0.055h2.01c0.02,0.002,0.033,0.01,0.045,0.021l4.234,5.6v-5.02c0-0.037-0.018-0.057-0.051-0.057l-0.84-0.088c-0.037,0-0.057-0.021-0.057-0.063v-0.34c0-0.037,0.02-0.055,0.057-0.055h2.373
			c0.037,0,0.055,0.018,0.055,0.055v0.34c0,0.041-0.018,0.063-0.055,0.063l-0.857,0.088c-0.037,0-0.057,0.02-0.057,0.057v7.107c0,0.039-0.021,0.057-0.066,0.057h-0.217c-0.02-0.004-0.039-0.016-0.057-0.033l-4.92-6.512v5.85c0,0.039,0.016,0.061,0.045,0.061
			l0.836,0.09c0.037,0,0.055,0.018,0.055,0.055v0.346c0,0.037-0.018,0.055-0.055,0.055h-2.373c-0.041,0-0.063-0.018-0.063-0.055v-0.346c0-0.037,0.021-0.055,0.063-0.055l0.863-0.09c0.041,0,0.061-0.021,0.061-0.061v-6.469c0-0.037-0.02-0.057-0.061-0.057
			l-0.969-0.088c-0.039,0-0.057-0.021-0.057-0.063v-0.34z"/>
		<path style="&st2;" d="M170.912,53.029c0-0.037-0.02-0.057-0.057-0.057l-0.957-0.094c-0.037,0-0.057-0.02-0.057-0.057v-0.295c0-0.037,0.02-0.055,0.057-0.055h3.092c0.037,0,0.055,0.018,0.055,0.055v0.295c0,0.037-0.018,0.057-0.055,0.057l-1.025,0.094
			c-0.041,0-0.061,0.02-0.061,0.057v4.117c0,0.568,0.031,1.006,0.094,1.314c0.049,0.238,0.146,0.443,0.295,0.613c0.398,0.457,0.973,0.686,1.723,0.686c0.805,0,1.406-0.32,1.805-0.959c0.127-0.201,0.209-0.514,0.25-0.941c0.023-0.23,0.035-0.508,0.035-0.836v-3.994
			c0-0.037-0.02-0.057-0.057-0.057l-0.969-0.094c-0.037,0-0.057-0.02-0.057-0.057v-0.295c0-0.037,0.02-0.055,0.057-0.055h2.646c0.037,0,0.055,0.018,0.055,0.055v0.295c0,0.037-0.018,0.057-0.055,0.057l-0.938,0.094c-0.037,0-0.055,0.02-0.055,0.057v3.949
			c0,1.248-0.256,2.119-0.77,2.613c-0.498,0.479-1.199,0.719-2.105,0.719c-1.021,0-1.791-0.256-2.307-0.768c-0.227-0.227-0.383-0.463-0.469-0.709c-0.115-0.33-0.172-0.756-0.172-1.275v-4.529z"/>
		<path style="&st2;" d="M181.15,52.527c0-0.037,0.02-0.055,0.057-0.055h3.092c0.037,0,0.055,0.018,0.055,0.055v0.295c0,0.037-0.018,0.057-0.055,0.057l-1.025,0.094c-0.037,0-0.057,0.02-0.057,0.057v6.541c0,0.037,0.02,0.055,0.057,0.055h2.646
			c0.037,0,0.055-0.014,0.055-0.045l0.229-1.27c0-0.029,0.02-0.045,0.057-0.045h0.422c0.037,0,0.057,0.02,0.057,0.057v1.771c0,0.037-0.02,0.055-0.057,0.055h-5.475c-0.037,0-0.057-0.018-0.057-0.055v-0.295c0-0.041,0.02-0.063,0.057-0.063l0.957-0.088
			c0.037,0,0.057-0.02,0.057-0.057v-6.563c0-0.037-0.02-0.057-0.057-0.057l-0.957-0.094c-0.037,0-0.057-0.02-0.057-0.057v-0.295z"/>
		<path style="&st2;" d="M189.49,55.189c0.041,0,0.063,0.018,0.063,0.057v0.289c0,0.029-0.018,0.043-0.051,0.043l-0.59,0.068c-0.053,0-0.068,0.025-0.045,0.078l1.342,3.254l1.383-3.254c0.021-0.053,0.008-0.078-0.045-0.078l-0.59-0.068
			c-0.035,0-0.051-0.014-0.051-0.043v-0.289c0-0.039,0.02-0.057,0.061-0.057h1.834c0.041,0,0.061,0.018,0.061,0.057v0.277c0,0.037-0.02,0.055-0.061,0.055l-0.625,0.068c-0.018,0.004-0.033,0.014-0.043,0.033l-2.045,4.813c-0.736,1.729-1.375,2.592-1.918,2.592
			c-0.021,0-0.049-0.008-0.078-0.021l-0.539-0.535c-0.027-0.025-0.031-0.053-0.012-0.078l0.139-0.229c0.016-0.016,0.033-0.023,0.057-0.023c0.359,0,0.652-0.084,0.879-0.25c0.18-0.133,0.373-0.375,0.58-0.725c0.131-0.215,0.289-0.543,0.479-0.98
			c0.016-0.033,0.016-0.082,0-0.145l-1.859-4.406c-0.016-0.023-0.031-0.035-0.045-0.035l-0.664-0.078c-0.029,0-0.043-0.014-0.043-0.043v-0.289c0-0.039,0.018-0.057,0.055-0.057h2.373z"/>
		<path style="&st2;" d="M196.514,55.035c0.113,0,0.258,0.035,0.428,0.105c0.172,0.07,0.297,0.146,0.379,0.229c0.012,0.008,0.021,0.023,0.029,0.045c0.006,0.021,0.002,0.041-0.012,0.057l-0.563,0.801c-0.027,0.037-0.047,0.057-0.063,0.057
			c-0.01,0-0.02-0.004-0.027-0.012c-0.168-0.168-0.352-0.252-0.551-0.252c-0.25,0-0.469,0.111-0.658,0.33l-0.334,0.391c-0.029,0.033-0.045,0.074-0.045,0.121v2.709c0,0.033,0.02,0.051,0.057,0.055l0.969,0.078c0.041,0.004,0.061,0.025,0.061,0.063v0.283
			c0,0.037-0.02,0.055-0.061,0.055h-2.803c-0.041,0-0.061-0.018-0.061-0.055V59.81c0-0.041,0.02-0.063,0.061-0.063l0.797-0.078c0.037,0,0.057-0.02,0.057-0.055v-3.768c0-0.035-0.02-0.055-0.057-0.055l-0.818-0.096c-0.041,0-0.063-0.018-0.063-0.055V55.38
			c0-0.037,0.016-0.057,0.045-0.057l1.371-0.229c0.041-0.008,0.064-0.012,0.072-0.012h0.316c0.037,0,0.057,0.02,0.057,0.057v1.059l0.607-0.707c0.26-0.305,0.529-0.457,0.809-0.457z"/>
		<path style="&st2;" d="M197.658,60.148c-0.041,0-0.061-0.018-0.061-0.055v-0.285c0-0.041,0.02-0.061,0.061-0.061l0.797-0.078c0.037,0,0.057-0.02,0.057-0.057v-3.766c0-0.037-0.02-0.055-0.057-0.055l-0.824-0.096c-0.037,0-0.057-0.02-0.057-0.055v-0.264
			c0-0.037,0.016-0.055,0.045-0.055l1.371-0.229c0.016-0.004,0.037-0.008,0.066-0.012h0.324c0.037,0,0.057,0.02,0.057,0.057v4.473c0,0.037,0.018,0.057,0.055,0.057l0.74,0.078c0.041,0,0.063,0.02,0.063,0.061v0.285c0,0.037-0.021,0.055-0.063,0.055h-2.574
			 M198.912,52.41c0.178,0,0.326,0.057,0.441,0.17c0.113,0.113,0.172,0.26,0.172,0.438s-0.059,0.324-0.172,0.438c-0.115,0.113-0.264,0.17-0.441,0.17s-0.326-0.057-0.443-0.17s-0.174-0.26-0.174-0.438s0.057-0.324,0.174-0.438s0.266-0.17,0.443-0.17z"/>
		<path style="&st2;" d="M203.535,55.035c0.527,0,1.025,0.09,1.494,0.268c0.037,0.016,0.055,0.033,0.055,0.055v1.32c0,0.035-0.018,0.051-0.055,0.051h-0.357c-0.037,0-0.055-0.016-0.055-0.051l-0.186-0.861c0-0.023-0.014-0.049-0.043-0.074
			c-0.32-0.148-0.617-0.223-0.893-0.223c-0.49,0-0.879,0.201-1.17,0.602c-0.26,0.361-0.391,0.795-0.391,1.305c0,0.635,0.141,1.152,0.418,1.555c0.32,0.459,0.785,0.689,1.395,0.689c0.453,0,0.883-0.137,1.291-0.412c0.023-0.016,0.037-0.018,0.045-0.012
			c0.008,0.008,0.016,0.02,0.023,0.035l0.16,0.277c0.016,0.025,0.004,0.053-0.033,0.078c-0.65,0.449-1.285,0.674-1.904,0.674c-0.74,0-1.326-0.23-1.762-0.689c-0.43-0.451-0.646-1.047-0.646-1.789c0-0.781,0.238-1.438,0.715-1.973
			c0.492-0.549,1.127-0.824,1.898-0.824z"/>
		<path style="&st2;" d="M209.99,53.074c0-0.037-0.018-0.057-0.055-0.057l-0.969-0.088c-0.037,0-0.057-0.021-0.057-0.063v-0.34c0-0.037,0.02-0.055,0.057-0.055h3.068c1.314,0,2.34,0.299,3.076,0.896c0.803,0.65,1.203,1.617,1.203,2.902
			c0,2.586-1.484,3.877-4.451,3.877h-2.896c-0.037,0-0.057-0.018-0.057-0.055v-0.346c0-0.037,0.02-0.055,0.057-0.055l0.969-0.09c0.037,0,0.055-0.021,0.055-0.061v-6.469 M210.988,59.57c0,0.037,0.02,0.055,0.057,0.055h0.807c1.148,0,1.982-0.201,2.502-0.607
			c0.584-0.459,0.875-1.246,0.875-2.361c0-2.441-1.064-3.66-3.193-3.66h-0.99c-0.037,0-0.057,0.018-0.057,0.055v6.52z"/>
		<path style="&st2;" d="M217.119,60.148c-0.041,0-0.061-0.018-0.061-0.055v-0.285c0-0.041,0.02-0.061,0.061-0.061l0.797-0.078c0.037,0,0.057-0.02,0.057-0.057v-3.766c0-0.037-0.02-0.055-0.057-0.055l-0.824-0.096c-0.037,0-0.057-0.02-0.057-0.055v-0.264
			c0-0.037,0.016-0.055,0.045-0.055l1.371-0.229c0.016-0.004,0.037-0.008,0.066-0.012h0.324c0.037,0,0.055,0.02,0.055,0.057v4.473c0,0.037,0.02,0.057,0.057,0.057l0.74,0.078c0.041,0,0.061,0.02,0.061,0.061v0.285c0,0.037-0.02,0.055-0.061,0.055h-2.574
			 M218.373,52.41c0.178,0,0.324,0.057,0.441,0.17c0.113,0.113,0.172,0.26,0.172,0.438s-0.059,0.324-0.172,0.438c-0.117,0.113-0.264,0.17-0.441,0.17s-0.326-0.057-0.443-0.17s-0.176-0.26-0.176-0.438s0.059-0.324,0.176-0.438s0.266-0.17,0.443-0.17z"/>
		<path style="&st2;" d="M223.096,56.632c-0.037-0.01-0.055-0.025-0.055-0.043l-0.184-0.893c0-0.029-0.016-0.051-0.045-0.066c-0.186-0.086-0.396-0.129-0.629-0.129c-0.402,0-0.678,0.137-0.832,0.408c-0.055,0.1-0.082,0.209-0.082,0.328
			c0,0.346,0.275,0.631,0.824,0.854l0.479,0.193c0.836,0.342,1.254,0.807,1.254,1.393c0,0.51-0.211,0.916-0.635,1.221c-0.379,0.275-0.832,0.412-1.359,0.412c-0.383,0-0.832-0.088-1.348-0.262c-0.039-0.006-0.057-0.027-0.057-0.061v-1.32
			c0-0.029,0.018-0.045,0.057-0.045h0.35c0.041,0,0.061,0.016,0.061,0.045l0.18,0.912c0.004,0.016,0.02,0.039,0.051,0.068c0.26,0.123,0.529,0.184,0.807,0.184c0.654,0,0.98-0.275,0.98-0.824c0-0.324-0.166-0.564-0.502-0.725c-0.055-0.025-0.156-0.072-0.305-0.139
			l-0.514-0.207c-0.807-0.324-1.209-0.799-1.209-1.426c0-0.447,0.201-0.814,0.602-1.104c0.346-0.248,0.76-0.373,1.242-0.373c0.395,0,0.801,0.068,1.221,0.207c0.041,0.006,0.061,0.027,0.061,0.061v1.287c0,0.029-0.02,0.043-0.061,0.043h-0.352z"/>
		<path style="&st2;" d="M225.643,55.095c0.014-0.004,0.039-0.008,0.072-0.012h0.316c0.037,0,0.057,0.02,0.057,0.057v0.535c0.523-0.428,1.07-0.641,1.643-0.641c0.609,0,1.098,0.244,1.467,0.734c0.334,0.443,0.5,0.979,0.5,1.605c0,0.844-0.248,1.541-0.746,2.09
			c-0.516,0.564-1.191,0.846-2.027,0.846c-0.23,0-0.51-0.035-0.836-0.105v2.207c0,0.037,0.02,0.055,0.061,0.055l0.875,0.078c0.041,0,0.063,0.02,0.063,0.055v0.291c0,0.037-0.021,0.055-0.063,0.055h-2.713c-0.037,0-0.057-0.018-0.057-0.055v-0.291
			c0-0.035,0.02-0.055,0.057-0.055l0.797-0.078c0.037,0,0.055-0.018,0.055-0.055v-6.564c0-0.035-0.018-0.055-0.055-0.055l-0.82-0.096c-0.037,0-0.055-0.018-0.055-0.055V55.38c0.012-0.037,0.025-0.057,0.045-0.057l1.365-0.229 M226.088,59.542
			c0.17,0.17,0.479,0.256,0.924,0.256c0.795,0,1.313-0.424,1.549-1.271c0.072-0.252,0.107-0.527,0.107-0.83c0-0.533-0.104-0.967-0.307-1.297c-0.246-0.406-0.619-0.607-1.121-0.607c-0.4,0-0.764,0.102-1.092,0.307c-0.041,0.014-0.061,0.037-0.061,0.066v3.377z"/>
		<path style="&st2;" d="M231.27,52.849c0-0.037-0.018-0.057-0.055-0.057l-0.893-0.094c-0.037,0-0.055-0.02-0.055-0.057V52.38c0.01-0.037,0.025-0.057,0.045-0.057l1.436-0.227c0.023-0.008,0.041-0.012,0.057-0.012h0.334c0.037,0,0.057,0.018,0.057,0.057v7.465
			c0,0.033,0.018,0.051,0.055,0.055l0.902,0.078c0.037,0.004,0.057,0.025,0.057,0.063v0.283c0,0.037-0.02,0.055-0.057,0.055h-2.83c-0.037,0-0.055-0.018-0.055-0.055v-0.283c0-0.041,0.018-0.063,0.055-0.063l0.893-0.078c0.037,0,0.055-0.018,0.055-0.055v-6.758z"/>
		<path style="&st2;" d="M236.514,59.648c-0.48,0.441-1,0.662-1.561,0.662c-0.584,0-0.977-0.24-1.182-0.719c-0.066-0.156-0.1-0.322-0.1-0.502c0-0.627,0.318-1.086,0.959-1.381c0.191-0.09,0.389-0.154,0.59-0.195c0.445-0.092,0.85-0.152,1.215-0.184v-0.879
			c0-0.592-0.289-0.887-0.869-0.887c-0.33,0-0.619,0.059-0.863,0.178c-0.023,0.02-0.041,0.051-0.057,0.096l-0.162,0.84c0,0.035-0.018,0.051-0.055,0.051h-0.357c-0.037,0-0.055-0.016-0.055-0.051v-1.264c0-0.021,0.018-0.041,0.055-0.057
			c0.602-0.215,1.172-0.322,1.711-0.322c0.762,0,1.256,0.229,1.482,0.686c0.086,0.17,0.127,0.389,0.127,0.652v3.08c0,0.031,0.016,0.053,0.045,0.066l0.719,0.207c0.037,0.021,0.059,0.041,0.063,0.055v0.195c-0.016,0.041-0.033,0.063-0.051,0.063l-1.504,0.199
			c-0.037,0-0.057-0.018-0.057-0.055l-0.094-0.535 M236.436,57.775c-0.391,0.023-0.684,0.066-0.881,0.129c-0.053,0.016-0.143,0.045-0.273,0.09c-0.393,0.133-0.59,0.428-0.59,0.879c0,0.486,0.242,0.73,0.73,0.73c0.141,0,0.311-0.035,0.512-0.105
			c0.1-0.037,0.25-0.105,0.445-0.207c0.037-0.025,0.057-0.049,0.057-0.066v-1.449z"/>
		<path style="&st2;" d="M240.861,55.189c0.041,0,0.063,0.018,0.063,0.057v0.289c0,0.029-0.018,0.043-0.051,0.043l-0.59,0.068c-0.053,0-0.066,0.025-0.045,0.078l1.342,3.254l1.383-3.254c0.021-0.053,0.008-0.078-0.045-0.078l-0.59-0.068
			c-0.033,0-0.051-0.014-0.051-0.043v-0.289c0-0.039,0.02-0.057,0.061-0.057h1.834c0.041,0,0.061,0.018,0.061,0.057v0.277c0,0.037-0.02,0.055-0.061,0.055l-0.625,0.068c-0.018,0.004-0.033,0.014-0.043,0.033l-2.045,4.813c-0.736,1.729-1.375,2.592-1.918,2.592
			c-0.021,0-0.049-0.008-0.078-0.021l-0.539-0.535c-0.027-0.025-0.031-0.053-0.012-0.078l0.139-0.229c0.016-0.016,0.033-0.023,0.057-0.023c0.359,0,0.654-0.084,0.879-0.25c0.18-0.133,0.373-0.375,0.58-0.725c0.131-0.215,0.289-0.543,0.479-0.98
			c0.016-0.033,0.016-0.082,0-0.145l-1.859-4.406c-0.016-0.023-0.029-0.035-0.045-0.035l-0.664-0.078c-0.029,0-0.043-0.014-0.043-0.043v-0.289c0-0.039,0.018-0.057,0.055-0.057h2.373z"/>
		<path style="&st2;" d="M251.402,54.414c-0.037,0-0.055-0.016-0.055-0.045l-0.229-1.281c0-0.023-0.018-0.041-0.051-0.055c-0.326-0.146-0.68-0.219-1.059-0.219c-0.393,0-0.729,0.104-1.002,0.313c-0.305,0.23-0.457,0.537-0.457,0.918c0,0.369,0.135,0.682,0.406,0.938
			c0.182,0.17,0.479,0.35,0.893,0.539l0.74,0.34c0.578,0.27,1,0.539,1.264,0.814c0.332,0.346,0.496,0.773,0.496,1.287c0,0.766-0.293,1.359-0.879,1.783c-0.525,0.379-1.182,0.566-1.973,0.566c-0.406,0-0.871-0.059-1.398-0.176c-0.148-0.035-0.285-0.076-0.408-0.123
			c-0.037-0.016-0.055-0.035-0.055-0.057v-1.721c0-0.039,0.018-0.057,0.055-0.057h0.469c0.037,0.012,0.057,0.025,0.057,0.045l0.229,1.287c0.002,0.012,0.01,0.02,0.021,0.027l0.027,0.033c0.268,0.135,0.639,0.201,1.115,0.201c0.467,0,0.859-0.109,1.176-0.328
			c0.359-0.25,0.539-0.6,0.539-1.049c0-0.623-0.416-1.131-1.248-1.52l-0.752-0.352c-0.549-0.256-0.957-0.518-1.225-0.787c-0.354-0.352-0.529-0.768-0.529-1.246s0.146-0.904,0.439-1.277c0.287-0.359,0.66-0.615,1.125-0.768c0.297-0.098,0.611-0.145,0.941-0.145
			c0.443,0,0.896,0.053,1.361,0.162c0.125,0.029,0.262,0.066,0.41,0.109c0.039,0.008,0.057,0.027,0.057,0.057v1.727c0,0.037-0.018,0.057-0.057,0.057h-0.445z"/>
		<path style="&st2;" d="M255.117,55.189c0.041,0,0.063,0.018,0.063,0.057v0.289c0,0.029-0.018,0.043-0.051,0.043l-0.59,0.068c-0.053,0-0.068,0.025-0.045,0.078l1.342,3.254l1.383-3.254c0.021-0.053,0.008-0.078-0.045-0.078l-0.592-0.068
			c-0.033,0-0.049-0.014-0.049-0.043v-0.289c0-0.039,0.02-0.057,0.061-0.057h1.834c0.041,0,0.061,0.018,0.061,0.057v0.277c0,0.037-0.02,0.055-0.061,0.055l-0.625,0.068c-0.018,0.004-0.033,0.014-0.043,0.033l-2.045,4.813c-0.736,1.729-1.375,2.592-1.918,2.592
			c-0.021,0-0.049-0.008-0.078-0.021l-0.539-0.535c-0.027-0.025-0.031-0.053-0.012-0.078l0.139-0.229c0.016-0.016,0.033-0.023,0.057-0.023c0.359,0,0.652-0.084,0.879-0.25c0.18-0.133,0.373-0.375,0.58-0.725c0.129-0.215,0.289-0.543,0.479-0.98
			c0.016-0.033,0.016-0.082,0-0.145l-1.859-4.406c-0.016-0.023-0.031-0.035-0.045-0.035l-0.664-0.078c-0.029,0-0.043-0.014-0.043-0.043v-0.289c0-0.039,0.018-0.057,0.055-0.057h2.373z"/>
		<path style="&st2;" d="M261.639,56.632c-0.037-0.01-0.055-0.025-0.055-0.043l-0.186-0.893c0-0.029-0.014-0.051-0.043-0.066c-0.186-0.086-0.396-0.129-0.631-0.129c-0.4,0-0.678,0.137-0.83,0.408c-0.055,0.1-0.084,0.209-0.084,0.328c0,0.346,0.275,0.631,0.826,0.854
			l0.479,0.193c0.836,0.342,1.254,0.807,1.254,1.393c0,0.51-0.213,0.916-0.635,1.221c-0.381,0.275-0.832,0.412-1.361,0.412c-0.381,0-0.83-0.088-1.348-0.262c-0.037-0.006-0.055-0.027-0.055-0.061v-1.32c0-0.029,0.018-0.045,0.055-0.045h0.352
			c0.041,0,0.061,0.016,0.061,0.045l0.18,0.912c0.002,0.016,0.02,0.039,0.049,0.068c0.26,0.123,0.529,0.184,0.809,0.184c0.654,0,0.98-0.275,0.98-0.824c0-0.324-0.168-0.564-0.502-0.725c-0.055-0.025-0.158-0.072-0.307-0.139l-0.512-0.207
			c-0.807-0.324-1.209-0.799-1.209-1.426c0-0.447,0.201-0.814,0.602-1.104c0.346-0.248,0.76-0.373,1.242-0.373c0.395,0,0.801,0.068,1.221,0.207c0.041,0.006,0.061,0.027,0.061,0.061v1.287c0,0.029-0.02,0.043-0.061,0.043h-0.352z"/>
		<path style="&st2;" d="M263.527,55.826c0-0.035-0.02-0.055-0.061-0.055h-0.658c-0.033,0-0.049-0.018-0.049-0.051v-0.055c0-0.021,0.012-0.045,0.039-0.068l1.459-1.471c0.033-0.031,0.063-0.049,0.09-0.049h0.055c0.033,0,0.051,0.02,0.051,0.061v1.047
			c0,0.039,0.018,0.057,0.055,0.057h1.516c0.037,0,0.057,0.02,0.057,0.061v0.408c0,0.039-0.02,0.061-0.057,0.061h-1.516c-0.037,0-0.055,0.02-0.055,0.055v3.037c0,0.547,0.242,0.818,0.73,0.818c0.355,0,0.645-0.09,0.863-0.273c0.014-0.014,0.033-0.02,0.055-0.016
			c0.016,0.004,0.027,0.01,0.039,0.016l0.145,0.285c0.008,0.035-0.002,0.061-0.033,0.078c-0.293,0.197-0.545,0.33-0.758,0.4c-0.281,0.094-0.57,0.139-0.863,0.139c-0.313,0-0.574-0.096-0.785-0.289s-0.318-0.443-0.318-0.752v-3.443z"/>
		<path style="&st2;" d="M267.814,57.558c0.014,0.621,0.158,1.113,0.434,1.482c0.316,0.42,0.771,0.629,1.365,0.629c0.475,0,0.922-0.129,1.338-0.389c0.014-0.016,0.027-0.02,0.039-0.012c0.008,0.012,0.016,0.021,0.027,0.033l0.162,0.277
			c0.006,0.035-0.004,0.061-0.033,0.078c-0.65,0.436-1.309,0.652-1.973,0.652c-0.744,0-1.328-0.23-1.756-0.689c-0.42-0.447-0.629-1.043-0.629-1.789c0-0.766,0.203-1.41,0.613-1.934c0.445-0.574,1.039-0.863,1.781-0.863c0.658,0,1.158,0.188,1.5,0.563
			c0.33,0.365,0.496,0.877,0.496,1.537c0,0.119-0.008,0.242-0.023,0.369c0,0.035-0.018,0.055-0.055,0.055h-3.287 M269.078,55.542c-0.594,0-0.979,0.33-1.152,0.99c-0.053,0.197-0.086,0.391-0.1,0.58h2.328c0.033-1.049-0.324-1.57-1.076-1.57z"/>
		<path style="&st2;" d="M272.01,55.316l1.371-0.229c0.045-0.008,0.084-0.012,0.117-0.012h0.273c0.037,0,0.055,0.018,0.055,0.057v0.49c0.551-0.412,1.102-0.619,1.654-0.619c0.561,0,0.977,0.242,1.244,0.73c0.549-0.453,1.143-0.68,1.781-0.68
			c0.975,0,1.461,0.551,1.461,1.654v2.896c0,0.037,0.018,0.057,0.055,0.057l0.742,0.078c0.041,0,0.061,0.02,0.061,0.061v0.285c0,0.037-0.02,0.055-0.061,0.055h-2.441c-0.037,0-0.055-0.018-0.055-0.055V59.8c0-0.041,0.018-0.061,0.055-0.061l0.664-0.078
			c0.037,0,0.055-0.02,0.055-0.057v-2.557c0-0.822-0.35-1.232-1.047-1.232c-0.439,0-0.818,0.104-1.143,0.309c0.029,0.117,0.045,0.289,0.045,0.512v2.969c0,0.037,0.02,0.057,0.057,0.057l0.662,0.078c0.037,0,0.055,0.02,0.055,0.061v0.285
			c0,0.037-0.018,0.055-0.055,0.055h-2.361c-0.037,0-0.057-0.018-0.057-0.055V59.8c0-0.041,0.02-0.061,0.057-0.061l0.662-0.078c0.037,0,0.055-0.02,0.055-0.057v-2.613c0-0.82-0.334-1.23-1.002-1.23c-0.375,0-0.736,0.088-1.086,0.262
			c-0.016,0.008-0.033,0.023-0.057,0.045v3.537c0,0.037,0.02,0.057,0.057,0.057l0.662,0.078c0.037,0,0.057,0.02,0.057,0.061v0.285c0,0.037-0.02,0.055-0.057,0.055h-2.496c-0.041,0-0.061-0.018-0.061-0.055V59.8c0-0.041,0.02-0.061,0.061-0.061l0.797-0.078
			c0.037,0,0.057-0.02,0.057-0.057v-3.766c0-0.037-0.02-0.057-0.057-0.057l-0.818-0.094c-0.041,0-0.063-0.02-0.063-0.055v-0.264c0-0.037,0.016-0.055,0.045-0.055z"/>
		<path style="&st2;" d="M70,0.707c0-0.221,0.109-0.332,0.332-0.332H88.76c0.221,0,0.332,0.111,0.332,0.332v1.76c0,0.223-0.111,0.332-0.332,0.332l-6.109,0.564c-0.223,0-0.332,0.111-0.332,0.332v38.98c0,0.223,0.109,0.332,0.332,0.332h15.771
			c0.221,0,0.332-0.088,0.332-0.266l1.361-7.57c0-0.176,0.109-0.266,0.332-0.266h2.523c0.221,0,0.332,0.111,0.332,0.332v10.559c0,0.223-0.111,0.332-0.332,0.332H70.333c-0.223,0-0.332-0.109-0.332-0.332v-1.76c0-0.242,0.109-0.365,0.332-0.365l5.711-0.531
			c0.221,0,0.332-0.109,0.332-0.332V3.695c0-0.221-0.111-0.332-0.332-0.332l-5.711-0.564C70.11,2.799,70,2.689,70,2.467v-1.76z"/>
		<path style="&st2;" d="M119.622,16.625c0.242,0,0.365,0.111,0.365,0.332v1.727c0,0.178-0.1,0.266-0.299,0.266l-3.52,0.398c-0.311,0-0.398,0.156-0.266,0.465l8.002,19.39l8.234-19.39c0.133-0.309,0.043-0.465-0.266-0.465l-3.52-0.398
			c-0.199,0-0.299-0.088-0.299-0.266v-1.727c0-0.221,0.121-0.332,0.365-0.332h10.923c0.242,0,0.365,0.111,0.365,0.332v1.66c0,0.223-0.123,0.332-0.365,0.332l-3.718,0.398c-0.111,0.023-0.199,0.09-0.266,0.199l-12.186,28.687
			c-4.383,10.293-8.191,15.439-11.422,15.439c-0.133,0-0.289-0.045-0.465-0.133l-3.221-3.188c-0.156-0.156-0.178-0.311-0.066-0.465l0.83-1.361c0.088-0.09,0.199-0.133,0.332-0.133c2.146,0,3.895-0.498,5.246-1.494c1.063-0.797,2.213-2.236,3.453-4.316
			c0.773-1.285,1.727-3.232,2.855-5.844c0.088-0.199,0.088-0.488,0-0.863l-11.09-26.263c-0.09-0.133-0.178-0.199-0.266-0.199l-3.951-0.465c-0.178,0-0.266-0.088-0.266-0.266v-1.727c0-0.221,0.109-0.332,0.332-0.332h14.145z"/>
		<path style="&st2;" d="M161.521,15.625c0.686,0,1.537,0.211,2.557,0.631c1.018,0.422,1.77,0.875,2.258,1.361c0.066,0.045,0.121,0.133,0.166,0.266c0.043,0.133,0.021,0.244-0.066,0.332l-3.354,4.781c-0.156,0.223-0.277,0.332-0.365,0.332
			c-0.066,0-0.123-0.021-0.166-0.066c-0.996-0.996-2.092-1.494-3.287-1.494c-1.484,0-2.789,0.654-3.918,1.959l-1.992,2.324c-0.178,0.199-0.266,0.443-0.266,0.73v16.136c0,0.199,0.109,0.311,0.332,0.332l5.777,0.465c0.242,0.023,0.365,0.145,0.365,0.365v1.693
			c0,0.223-0.123,0.332-0.365,0.332h-16.701c-0.244,0-0.365-0.109-0.365-0.332V44.08c0-0.242,0.121-0.365,0.365-0.365l4.748-0.465c0.221,0,0.332-0.109,0.332-0.332V20.473c0-0.221-0.111-0.332-0.332-0.332l-4.881-0.564c-0.244,0-0.365-0.109-0.365-0.332v-1.561
			c0-0.221,0.088-0.332,0.266-0.332l8.168-1.361c0.242-0.043,0.387-0.066,0.432-0.066h1.893c0.221,0,0.332,0.111,0.332,0.332v6.309l3.619-4.217c1.549-1.814,3.154-2.723,4.814-2.723z"/>
		<path style="&st2;" d="M168.402,46.119c-0.244,0-0.365-0.109-0.365-0.332v-1.693c0-0.242,0.121-0.365,0.365-0.365l4.748-0.465c0.221,0,0.332-0.109,0.332-0.332V20.486c0-0.221-0.111-0.332-0.332-0.332l-4.914-0.564c-0.223,0-0.332-0.109-0.332-0.332v-1.561
			c0-0.221,0.088-0.332,0.266-0.332l8.168-1.361c0.088-0.021,0.221-0.043,0.398-0.066h1.926c0.221,0,0.332,0.111,0.332,0.332v26.662c0,0.223,0.109,0.332,0.332,0.332l4.416,0.465c0.242,0,0.365,0.123,0.365,0.365v1.693c0,0.223-0.123,0.332-0.365,0.332h-15.34
			 M175.873,0c1.063,0,1.936,0.338,2.623,1.014c0.686,0.676,1.029,1.543,1.029,2.605s-0.344,1.932-1.029,2.607c-0.688,0.676-1.561,1.012-2.623,1.012s-1.943-0.336-2.641-1.012s-1.045-1.545-1.045-2.607s0.348-1.93,1.045-2.605S174.811,0,175.873,0z"/>
		<path style="&st0;" d="M214.834,35.261c-0.281,3.08-2.689,11.648-13.609,11.648c-11.199,0-13.775-8.568-13.775-14.841c0-9.632,4.199-16.52,14.279-16.52c4.705,0,12.434,2.128,13.16,11.424h-7.951c-0.336-1.96-1.568-5.04-5.209-4.816
			c-4.928,0-6.215,4.928-6.215,8.624c0,3.248,0.111,9.688,6.047,9.688c3.977,0,5.32-3.808,5.32-5.208h7.953z"/>
		<path style="&st0;" d="M247.201,46.125h-7.504v-4.199h-0.111c-1.793,3.191-4.928,4.984-9.072,4.984c-5.881,0-10.137-3.361-10.137-10.977v-19.6h7.84v18.48c0,4.593,2.689,5.487,5.096,5.487c2.576,0,6.049-1.455,6.049-6.775V16.333h7.84v29.792z"/>
		<path style="&st0;" d="M280.129,37.389c-2.072,7.168-8.008,9.521-13.104,9.521c-8.4,0-14.84-4.033-14.84-16.296c0-3.584,1.23-15.064,14.279-15.064c5.881,0,14,2.8,14,16.408v1.4h-20.439c0.223,2.24,0.672,7.28,7,7.28c2.184,0,4.424-1.12,5.039-3.248h8.064
			 M272.4,28.261c-0.447-4.816-3.527-6.272-6.047-6.272c-3.697,0-5.656,2.352-6.105,6.272H272.4z"/>
		<path style="&st0;" d="M11.569,25.47c-13.852,27.702-16.999,44.071,0,27.071c16.999-16.998,23.294-20.775,23.294-11.332c0,9.445,15.425,12.906,16.999,1.889c1.574-11.017-0.629-27.071-7.555-20.146c-6.925,6.925-13.536,6.296-13.536,0.315
			c0-5.981,1.731-27.544-4.092-21.721c-5.824,5.823-15.11,23.924-15.11,23.924z"/>
		<path style="&st2;" d="M31.677,57.115c0,3.459-2.528,6.262-5.647,6.262c-3.119,0-5.647-2.803-5.647-6.262c0-3.457,2.529-6.262,5.647-6.262c3.119,0,5.647,2.805,5.647,6.262z"/>
	</g>
</svg>
