<?xml version="1.0" encoding="UTF-8" standalone="no"?>
<!-- Copyright Browell Creative Advertising 2004 Luke@Browell.info for distribution with the Lyric Display System Lyricue under the GNU Public Licence  -->

<svg
   xmlns:dc="http://purl.org/dc/elements/1.1/"
   xmlns:cc="http://creativecommons.org/ns#"
   xmlns:rdf="http://www.w3.org/1999/02/22-rdf-syntax-ns#"
   xmlns:svg="http://www.w3.org/2000/svg"
   xmlns="http://www.w3.org/2000/svg"
   xmlns:xlink="http://www.w3.org/1999/xlink"
   xmlns:sodipodi="http://sodipodi.sourceforge.net/DTD/sodipodi-0.dtd"
   xmlns:inkscape="http://www.inkscape.org/namespaces/inkscape"
   width="64"
   height="300"
   viewBox="0 0 51.199997 239.99999"
   xml:space="preserve"
   id="svg2"
   version="1.1"
   inkscape:version="0.47pre0 r21549"
   sodipodi:docname="Lyricue-first-run-sidebar.svg"
   inkscape:output_extension="org.inkscape.output.svg.inkscape"
   inkscape:export-filename="/home/cjd/source/Lyricue/lyricue-cvs/images/Lyricue-first-run-sidebar.png"
   inkscape:export-xdpi="90"
   inkscape:export-ydpi="90"><metadata
   id="metadata75"><rdf:RDF><cc:Work
       rdf:about=""><dc:format>image/svg+xml</dc:format><dc:type
         rdf:resource="http://purl.org/dc/dcmitype/StillImage" /><dc:title></dc:title></cc:Work></rdf:RDF></metadata><defs
   id="defs73"><linearGradient
   id="linearGradient3752"><stop
     style="stop-color:#9696ff;stop-opacity:1;"
     offset="0"
     id="stop3754" /><stop
     style="stop-color:#2c26ad;stop-opacity:1;"
     offset="1"
     id="stop3756" /></linearGradient><inkscape:perspective
   sodipodi:type="inkscape:persp3d"
   inkscape:vp_x="0 : 55.774376 : 1"
   inkscape:vp_y="0 : 1000 : 0"
   inkscape:vp_z="87.167503 : 55.774376 : 1"
   inkscape:persp3d-origin="43.583752 : 37.182917 : 1"
   id="perspective77" />
		
		
		
		
		
		
		
		
		
		
		
		
		
		
		
		
		
		
		
		
		
		
		
		
		
		
		
		
		
		
		
		
		
	<linearGradient
   inkscape:collect="always"
   xlink:href="#linearGradient3752"
   id="linearGradient3758"
   x1="-0.44052863"
   y1="32.502205"
   x2="400.44052"
   y2="32.502205"
   gradientUnits="userSpaceOnUse"
   gradientTransform="matrix(0.59868706,0,0,0.80150878,-239.73741,-0.45080938)" /></defs><sodipodi:namedview
   pagecolor="#ffffff"
   bordercolor="#666666"
   borderopacity="1"
   objecttolerance="10"
   gridtolerance="10"
   guidetolerance="10"
   inkscape:pageopacity="0"
   inkscape:pageshadow="2"
   inkscape:window-width="962"
   inkscape:window-height="719"
   id="namedview71"
   showgrid="true"
   inkscape:zoom="1.52"
   inkscape:cx="32"
   inkscape:cy="150"
   inkscape:window-x="62"
   inkscape:window-y="25"
   inkscape:window-maximized="1"
   inkscape:current-layer="svg2"
   inkscape:snap-global="false"><inkscape:grid
     type="xygrid"
     id="grid3760"
     empspacing="5"
     visible="true"
     enabled="true"
     snapvisiblegridlinesonly="true" /></sodipodi:namedview>
	<rect
   id="rect2978"
   width="240.0023"
   height="51.197697"
   x="-240.00116"
   y="0.0011449266"
   style="fill:url(#linearGradient3758);fill-opacity:1;stroke:none"
   transform="matrix(0,-1,1,0,0,0)" /><g
   id="g2937"
   transform="matrix(0,-1.276776,1.2694563,0,-15.55908,195.34183)"><path
     style="fill-rule:nonzero;stroke:none"
     d="m 22.646,47.512999 c 0.012,0 0.018,0.008 0.018,0.018 v 0.592 c 0,0.014 -0.005,0.021 -0.018,0.021 h -0.14 c -0.012,0 -0.02,-0.006 -0.02,-0.016 l -0.074,-0.428 c 0,-0.01 -0.007,-0.014 -0.019,-0.014 h -0.611 c -0.011,0 -0.015,0.006 -0.015,0.018 v 2.162 c 0,0.012 0.005,0.018 0.017,0.02 l 0.359,0.027 c 0.013,0.002 0.02,0.008 0.02,0.021 v 0.098 c 0,0.014 -0.007,0.02 -0.02,0.02 h -1.081 c -0.015,0 -0.021,-0.006 -0.021,-0.02 v -0.098 c 0,-0.014 0.007,-0.02 0.021,-0.021 l 0.357,-0.027 c 0.012,-0.002 0.018,-0.008 0.018,-0.02 v -2.162 c 0,-0.012 -0.005,-0.018 -0.015,-0.018 H 20.81 c -0.012,0 -0.017,0.004 -0.017,0.014 l -0.076,0.428 c 0,0.01 -0.006,0.016 -0.019,0.016 h -0.14 c -0.013,0 -0.019,-0.008 -0.019,-0.021 v -0.592 c 0,-0.01 0.006,-0.018 0.019,-0.018 h 2.087 z"
     id="path5" /><path
     style="fill-rule:nonzero;stroke:none"
     d="m 23.296,47.387999 c 0.007,-0.002 0.013,-0.002 0.018,-0.002 h 0.111 c 0.013,0 0.019,0.006 0.019,0.018 v 1.15 c 0.197,-0.135 0.391,-0.205 0.58,-0.205 0.326,0 0.489,0.186 0.489,0.549 v 0.975 c 0,0.012 0.006,0.018 0.017,0.018 l 0.246,0.025 c 0.013,0 0.019,0.006 0.019,0.021 v 0.092 c 0,0.014 -0.006,0.02 -0.019,0.02 h -0.828 c -0.012,0 -0.018,-0.006 -0.018,-0.02 v -0.092 c 0,-0.016 0.006,-0.021 0.018,-0.021 l 0.239,-0.025 c 0.013,0 0.02,-0.006 0.02,-0.018 v -0.863 c 0,-0.271 -0.117,-0.408 -0.352,-0.408 -0.088,0 -0.19,0.016 -0.303,0.053 -0.036,0.008 -0.064,0.021 -0.089,0.035 -0.012,0.004 -0.018,0.012 -0.018,0.021 v 1.162 c 0,0.012 0.006,0.018 0.018,0.018 l 0.238,0.025 c 0.012,0 0.018,0.006 0.018,0.021 v 0.092 c 0,0.014 -0.006,0.02 -0.018,0.02 h -0.846 c -0.012,0 -0.018,-0.006 -0.018,-0.02 v -0.092 c 0,-0.016 0.006,-0.021 0.018,-0.021 l 0.265,-0.025 c 0.011,0 0.018,-0.006 0.018,-0.018 v -2.236 c 0,-0.01 -0.006,-0.018 -0.018,-0.018 l -0.295,-0.029 c -0.012,0 -0.018,-0.006 -0.018,-0.02 v -0.088 c 0,-0.01 0.004,-0.018 0.014,-0.018 l 0.476,-0.076 z"
     id="path7" /><path
     style="fill-rule:nonzero;stroke:none"
     d="m 25.355,49.193999 c 0.005,0.205 0.053,0.369 0.145,0.49 0.103,0.139 0.253,0.207 0.45,0.207 0.157,0 0.305,-0.041 0.443,-0.127 0.004,-0.006 0.008,-0.008 0.012,-0.004 0.002,0.004 0.006,0.008 0.009,0.01 l 0.054,0.092 c 0.002,0.012 -0.001,0.02 -0.012,0.025 -0.215,0.145 -0.432,0.217 -0.652,0.217 -0.245,0 -0.438,-0.078 -0.579,-0.229 -0.14,-0.146 -0.208,-0.346 -0.208,-0.592 0,-0.254 0.068,-0.465 0.203,-0.639 0.147,-0.189 0.344,-0.287 0.589,-0.287 0.217,0 0.382,0.064 0.496,0.189 0.11,0.117 0.165,0.287 0.165,0.504 0,0.041 -0.003,0.08 -0.008,0.125 0,0.012 -0.007,0.018 -0.018,0.018 h -1.087 m 0.416,-0.665 c -0.197,0 -0.324,0.109 -0.381,0.328 -0.019,0.064 -0.028,0.129 -0.034,0.189 h 0.77 c 0.012,-0.344 -0.108,-0.518 -0.355,-0.518 z"
     id="path9" /><path
     style="fill-rule:nonzero;stroke:none"
     d="m 29.168,47.457999 c 0.131,0 0.301,0.02 0.51,0.063 0.031,0.004 0.08,0.014 0.147,0.027 0.013,0.002 0.018,0.008 0.018,0.018 v 0.57 c 0,0.012 -0.005,0.018 -0.018,0.018 h -0.147 c -0.012,0 -0.019,-0.004 -0.019,-0.014 l -0.075,-0.424 c 0,-0.008 -0.005,-0.014 -0.017,-0.02 -0.216,-0.049 -0.358,-0.07 -0.425,-0.07 -0.332,0 -0.591,0.096 -0.78,0.287 -0.19,0.193 -0.285,0.455 -0.285,0.783 0,0.336 0.092,0.619 0.273,0.855 0.2,0.256 0.462,0.385 0.788,0.385 0.092,0 0.218,-0.018 0.377,-0.051 v -0.762 c 0,-0.014 -0.006,-0.02 -0.019,-0.02 l -0.321,-0.029 c -0.014,0 -0.019,-0.008 -0.019,-0.025 v -0.088 c 0,-0.016 0.007,-0.025 0.022,-0.025 h 0.963 c 0.015,0 0.021,0.01 0.021,0.025 v 0.088 c 0,0.018 -0.005,0.025 -0.018,0.025 l -0.283,0.029 c -0.01,0 -0.016,0.004 -0.019,0.012 v 0.879 c 0,0.008 -0.005,0.014 -0.018,0.02 -0.262,0.061 -0.508,0.09 -0.737,0.09 -0.396,0 -0.722,-0.121 -0.981,-0.359 -0.264,-0.246 -0.395,-0.564 -0.395,-0.957 0,-0.264 0.066,-0.5 0.196,-0.709 0.132,-0.205 0.317,-0.363 0.556,-0.475 0.217,-0.098 0.451,-0.146 0.704,-0.146 z"
     id="path11" /><path
     style="fill-rule:nonzero;stroke:none"
     d="m 30.318,47.529999 c 0,-0.01 0.006,-0.018 0.019,-0.018 h 0.665 c 0.006,0 0.01,0.002 0.014,0.008 l 1.4,1.852 v -1.66 c 0,-0.012 -0.005,-0.02 -0.016,-0.02 l -0.278,-0.027 c -0.011,0 -0.019,-0.01 -0.019,-0.023 v -0.111 c 0,-0.01 0.008,-0.018 0.019,-0.018 h 0.785 c 0.014,0 0.019,0.008 0.019,0.018 v 0.111 c 0,0.014 -0.005,0.023 -0.019,0.023 l -0.283,0.027 c -0.012,0 -0.018,0.008 -0.018,0.02 v 2.35 c 0,0.012 -0.007,0.018 -0.023,0.018 H 32.51 c -0.006,0 -0.013,-0.004 -0.018,-0.01 l -1.626,-2.154 v 1.936 c 0,0.012 0.004,0.02 0.015,0.02 l 0.276,0.029 c 0.011,0 0.018,0.006 0.018,0.018 v 0.115 c 0,0.014 -0.007,0.02 -0.018,0.02 h -0.785 c -0.015,0 -0.021,-0.006 -0.021,-0.02 v -0.115 c 0,-0.012 0.006,-0.018 0.021,-0.018 l 0.286,-0.029 c 0.014,0 0.021,-0.008 0.021,-0.02 v -2.139 c 0,-0.012 -0.007,-0.02 -0.021,-0.02 l -0.32,-0.027 c -0.012,0 -0.019,-0.01 -0.019,-0.023 v -0.111 z"
     id="path13" /><path
     style="fill-rule:nonzero;stroke:none"
     d="m 33.391,47.695999 c 0,-0.012 -0.006,-0.018 -0.018,-0.018 l -0.317,-0.031 c -0.012,0 -0.019,-0.008 -0.019,-0.02 v -0.098 c 0,-0.01 0.006,-0.018 0.019,-0.018 h 1.023 c 0.011,0 0.018,0.008 0.018,0.018 v 0.098 c 0,0.012 -0.006,0.02 -0.018,0.02 l -0.34,0.031 c -0.014,0 -0.021,0.006 -0.021,0.018 v 1.363 c 0,0.186 0.011,0.33 0.031,0.434 0.016,0.08 0.049,0.145 0.098,0.201 0.131,0.152 0.321,0.227 0.569,0.227 0.266,0 0.466,-0.105 0.597,-0.314 0.042,-0.068 0.069,-0.172 0.083,-0.313 0.008,-0.076 0.011,-0.17 0.011,-0.277 v -1.32 c 0,-0.012 -0.006,-0.018 -0.019,-0.018 l -0.32,-0.031 c -0.013,0 -0.019,-0.008 -0.019,-0.02 v -0.098 c 0,-0.01 0.006,-0.018 0.019,-0.018 h 0.875 c 0.013,0 0.018,0.008 0.018,0.018 v 0.098 c 0,0.012 -0.005,0.02 -0.018,0.02 l -0.311,0.031 c -0.012,0 -0.017,0.006 -0.017,0.018 v 1.307 c 0,0.412 -0.085,0.701 -0.255,0.863 -0.165,0.158 -0.397,0.238 -0.697,0.238 -0.336,0 -0.592,-0.086 -0.762,-0.254 -0.074,-0.074 -0.126,-0.154 -0.155,-0.234 -0.038,-0.109 -0.057,-0.25 -0.057,-0.422 v -1.498 z"
     id="path15" /><path
     style="fill-rule:nonzero;stroke:none"
     d="m 36.777,47.529999 c 0,-0.01 0.006,-0.018 0.018,-0.018 h 1.023 c 0.012,0 0.018,0.008 0.018,0.018 v 0.098 c 0,0.012 -0.006,0.02 -0.018,0.02 l -0.34,0.031 c -0.012,0 -0.02,0.006 -0.02,0.018 v 2.164 c 0,0.012 0.008,0.018 0.02,0.018 h 0.875 c 0.012,0 0.018,-0.004 0.018,-0.016 l 0.077,-0.42 c 0,-0.01 0.006,-0.016 0.019,-0.016 h 0.139 c 0.014,0 0.02,0.008 0.02,0.02 v 0.586 c 0,0.014 -0.006,0.02 -0.02,0.02 h -1.811 c -0.012,0 -0.018,-0.006 -0.018,-0.02 v -0.098 c 0,-0.014 0.006,-0.021 0.018,-0.021 l 0.317,-0.027 c 0.013,0 0.019,-0.008 0.019,-0.02 v -2.17 c 0,-0.012 -0.006,-0.018 -0.019,-0.018 l -0.317,-0.031 c -0.012,0 -0.018,-0.008 -0.018,-0.02 v -0.098 z"
     id="path17" /><path
     style="fill-rule:nonzero;stroke:none"
     d="m 39.535,48.410999 c 0.014,0 0.021,0.008 0.021,0.02 v 0.096 c 0,0.01 -0.005,0.014 -0.018,0.014 l -0.195,0.023 c -0.017,0 -0.021,0.008 -0.015,0.023 l 0.445,1.076 0.456,-1.076 c 0.007,-0.016 0.002,-0.023 -0.015,-0.023 l -0.195,-0.023 c -0.012,0 -0.017,-0.004 -0.017,-0.014 v -0.096 c 0,-0.012 0.007,-0.02 0.021,-0.02 h 0.605 c 0.014,0 0.02,0.008 0.02,0.02 v 0.092 c 0,0.014 -0.006,0.018 -0.02,0.018 l -0.207,0.023 c -0.006,0 -0.011,0.004 -0.014,0.01 l -0.678,1.592 c -0.242,0.57 -0.453,0.857 -0.633,0.857 -0.008,0 -0.016,-0.002 -0.025,-0.008 l -0.178,-0.178 c -0.01,-0.01 -0.011,-0.018 -0.005,-0.025 l 0.046,-0.076 c 0.006,-0.004 0.012,-0.008 0.02,-0.008 0.118,0 0.216,-0.025 0.29,-0.084 0.06,-0.043 0.124,-0.123 0.192,-0.238 0.043,-0.07 0.095,-0.178 0.158,-0.324 0.006,-0.01 0.006,-0.027 0,-0.047 l -0.615,-1.459 c -0.006,-0.008 -0.011,-0.01 -0.016,-0.01 l -0.219,-0.025 c -0.01,0 -0.016,-0.004 -0.016,-0.014 v -0.096 c 0,-0.012 0.008,-0.02 0.02,-0.02 h 0.785 z"
     id="path19" /><path
     style="fill-rule:nonzero;stroke:none"
     d="m 41.855,48.357999 c 0.039,0 0.086,0.014 0.143,0.035 0.057,0.025 0.1,0.051 0.125,0.078 0.004,0.002 0.006,0.006 0.01,0.014 0.002,0.008 0.002,0.014 -0.004,0.016 l -0.186,0.27 c -0.009,0.01 -0.016,0.016 -0.021,0.016 -0.004,0 -0.007,-0.002 -0.009,-0.002 -0.057,-0.057 -0.115,-0.082 -0.184,-0.082 -0.082,0 -0.154,0.035 -0.217,0.107 l -0.109,0.127 c -0.012,0.012 -0.016,0.025 -0.016,0.041 v 0.896 c 0,0.012 0.006,0.018 0.019,0.018 l 0.32,0.025 c 0.013,0.002 0.021,0.008 0.021,0.021 v 0.094 c 0,0.014 -0.008,0.02 -0.021,0.02 H 40.8 c -0.013,0 -0.02,-0.006 -0.02,-0.02 v -0.094 c 0,-0.014 0.007,-0.021 0.02,-0.021 l 0.264,-0.025 c 0.012,0 0.018,-0.006 0.018,-0.018 v -1.246 c 0,-0.012 -0.006,-0.018 -0.018,-0.018 l -0.27,-0.031 c -0.015,0 -0.021,-0.006 -0.021,-0.018 v -0.088 c 0,-0.012 0.005,-0.018 0.015,-0.018 l 0.453,-0.076 c 0.015,-0.002 0.021,-0.004 0.022,-0.004 h 0.105 c 0.014,0 0.02,0.008 0.02,0.018 v 0.352 l 0.2,-0.234 c 0.086,-0.102 0.176,-0.152 0.267,-0.152 z"
     id="path21" /><path
     style="fill-rule:nonzero;stroke:none"
     d="m 42.235,50.051999 c -0.014,0 -0.02,-0.006 -0.02,-0.02 v -0.094 c 0,-0.014 0.006,-0.021 0.02,-0.021 l 0.264,-0.025 c 0.011,0 0.019,-0.006 0.019,-0.018 v -1.246 c 0,-0.014 -0.008,-0.018 -0.019,-0.018 l -0.273,-0.031 c -0.012,0 -0.019,-0.008 -0.019,-0.02 v -0.086 c 0,-0.012 0.006,-0.018 0.016,-0.018 l 0.454,-0.076 c 0.004,0 0.012,-0.002 0.021,-0.004 h 0.107 c 0.012,0 0.018,0.008 0.018,0.018 v 1.48 c 0,0.012 0.007,0.018 0.02,0.018 l 0.245,0.025 c 0.015,0 0.021,0.008 0.021,0.021 v 0.094 c 0,0.014 -0.006,0.02 -0.021,0.02 h -0.852 m 0.414,-2.56 c 0.059,0 0.107,0.02 0.146,0.057 0.037,0.037 0.056,0.086 0.056,0.145 0,0.061 -0.019,0.105 -0.056,0.145 -0.039,0.037 -0.088,0.057 -0.146,0.057 -0.06,0 -0.108,-0.02 -0.146,-0.057 -0.039,-0.039 -0.058,-0.084 -0.058,-0.145 0,-0.059 0.019,-0.107 0.058,-0.145 0.038,-0.037 0.087,-0.057 0.146,-0.057 z"
     id="path23" /><path
     style="fill-rule:nonzero;stroke:none"
     d="m 44.177,48.357999 c 0.175,0 0.34,0.031 0.494,0.09 0.014,0.006 0.02,0.012 0.02,0.018 v 0.439 c 0,0.01 -0.006,0.016 -0.02,0.016 h -0.118 c -0.011,0 -0.017,-0.006 -0.017,-0.016 l -0.063,-0.289 c 0,-0.006 -0.004,-0.014 -0.014,-0.023 -0.106,-0.047 -0.203,-0.07 -0.295,-0.07 -0.162,0 -0.291,0.064 -0.388,0.195 -0.085,0.119 -0.13,0.266 -0.13,0.434 0,0.207 0.048,0.379 0.139,0.514 0.105,0.15 0.26,0.227 0.461,0.227 0.15,0 0.293,-0.045 0.427,-0.135 0.01,-0.006 0.013,-0.01 0.017,-0.006 0.002,0.006 0.006,0.008 0.008,0.014 l 0.053,0.092 c 0.004,0.008 0.001,0.018 -0.012,0.025 -0.214,0.146 -0.424,0.223 -0.63,0.223 -0.245,0 -0.438,-0.078 -0.582,-0.229 -0.142,-0.148 -0.214,-0.346 -0.214,-0.592 0,-0.258 0.079,-0.475 0.236,-0.652 0.162,-0.182 0.372,-0.273 0.627,-0.273 z"
     id="path25" /><path
     style="fill-rule:nonzero;stroke:none"
     d="m 46.314,47.711999 c 0,-0.012 -0.008,-0.02 -0.02,-0.02 l -0.32,-0.027 c -0.012,0 -0.02,-0.01 -0.02,-0.023 v -0.111 c 0,-0.01 0.008,-0.018 0.02,-0.018 h 1.014 c 0.436,0 0.773,0.1 1.018,0.297 0.267,0.213 0.398,0.533 0.398,0.961 0,0.854 -0.491,1.281 -1.473,1.281 h -0.957 c -0.012,0 -0.02,-0.006 -0.02,-0.02 v -0.115 c 0,-0.012 0.008,-0.018 0.02,-0.018 l 0.32,-0.029 c 0.012,0 0.02,-0.008 0.02,-0.02 v -2.139 m 0.328,2.149 c 0,0.012 0.007,0.018 0.02,0.018 h 0.267 c 0.38,0 0.655,-0.068 0.827,-0.201 0.193,-0.15 0.289,-0.412 0.289,-0.781 0,-0.807 -0.352,-1.209 -1.057,-1.209 h -0.326 c -0.013,0 -0.02,0.006 -0.02,0.018 v 2.156 z"
     id="path27" /><path
     style="fill-rule:nonzero;stroke:none"
     d="m 48.669,50.051999 c -0.014,0 -0.02,-0.006 -0.02,-0.02 v -0.094 c 0,-0.014 0.006,-0.021 0.02,-0.021 l 0.264,-0.025 c 0.012,0 0.018,-0.006 0.018,-0.018 v -1.246 c 0,-0.014 -0.006,-0.018 -0.018,-0.018 l -0.271,-0.031 c -0.014,0 -0.02,-0.008 -0.02,-0.02 v -0.086 c 0,-0.012 0.006,-0.018 0.016,-0.018 l 0.452,-0.076 c 0.005,0 0.013,-0.002 0.022,-0.004 h 0.107 c 0.012,0 0.018,0.008 0.018,0.018 v 1.48 c 0,0.012 0.006,0.018 0.019,0.018 l 0.245,0.025 c 0.014,0 0.02,0.008 0.02,0.021 v 0.094 c 0,0.014 -0.006,0.02 -0.02,0.02 h -0.852 m 0.415,-2.56 c 0.058,0 0.106,0.02 0.146,0.057 0.037,0.037 0.057,0.086 0.057,0.145 0,0.061 -0.02,0.105 -0.057,0.145 -0.039,0.037 -0.088,0.057 -0.146,0.057 -0.059,0 -0.108,-0.02 -0.147,-0.057 -0.039,-0.039 -0.058,-0.084 -0.058,-0.145 0,-0.059 0.019,-0.107 0.058,-0.145 0.039,-0.038 0.089,-0.057 0.147,-0.057 z"
     id="path29" /><path
     style="fill-rule:nonzero;stroke:none"
     d="m 50.646,48.887999 c -0.013,-0.002 -0.018,-0.008 -0.018,-0.014 l -0.062,-0.295 c 0,-0.012 -0.005,-0.018 -0.015,-0.023 -0.062,-0.027 -0.131,-0.043 -0.207,-0.043 -0.135,0 -0.225,0.047 -0.275,0.137 -0.019,0.033 -0.029,0.068 -0.029,0.109 0,0.113 0.093,0.207 0.273,0.281 l 0.158,0.063 c 0.277,0.115 0.414,0.268 0.414,0.461 0,0.17 -0.068,0.305 -0.209,0.404 -0.125,0.092 -0.275,0.137 -0.449,0.137 -0.127,0 -0.275,-0.029 -0.445,-0.088 -0.014,-0.002 -0.02,-0.008 -0.02,-0.018 v -0.438 c 0,-0.01 0.006,-0.016 0.02,-0.016 h 0.115 c 0.014,0 0.02,0.006 0.02,0.016 l 0.061,0.301 c 0,0.006 0.006,0.012 0.016,0.023 0.086,0.039 0.176,0.061 0.268,0.061 0.215,0 0.324,-0.09 0.324,-0.273 0,-0.107 -0.055,-0.188 -0.166,-0.238 -0.018,-0.01 -0.053,-0.023 -0.101,-0.047 l -0.171,-0.068 c -0.268,-0.105 -0.398,-0.266 -0.398,-0.471 0,-0.146 0.066,-0.27 0.199,-0.365 0.113,-0.084 0.25,-0.125 0.41,-0.125 0.131,0 0.264,0.025 0.404,0.068 0.012,0.004 0.02,0.01 0.02,0.021 v 0.426 c 0,0.01 -0.008,0.014 -0.02,0.014 h -0.117 z"
     id="path31" /><path
     style="fill-rule:nonzero;stroke:none"
     d="m 51.488,48.379999 c 0.005,0 0.013,-0.002 0.024,-0.004 h 0.104 c 0.012,0 0.019,0.008 0.019,0.018 v 0.178 c 0.173,-0.141 0.353,-0.213 0.544,-0.213 0.2,0 0.361,0.082 0.483,0.244 0.11,0.146 0.166,0.324 0.166,0.529 0,0.281 -0.083,0.512 -0.247,0.691 -0.17,0.189 -0.394,0.281 -0.67,0.281 -0.076,0 -0.168,-0.012 -0.276,-0.035 v 0.73 c 0,0.012 0.007,0.018 0.021,0.018 l 0.289,0.027 c 0.014,0 0.02,0.004 0.02,0.018 v 0.096 c 0,0.012 -0.006,0.018 -0.02,0.018 h -0.896 c -0.014,0 -0.02,-0.006 -0.02,-0.018 v -0.096 c 0,-0.014 0.006,-0.018 0.02,-0.018 l 0.263,-0.027 c 0.013,0 0.019,-0.006 0.019,-0.018 v -2.172 c 0,-0.012 -0.006,-0.018 -0.019,-0.018 l -0.271,-0.031 c -0.013,0 -0.019,-0.006 -0.019,-0.018 v -0.088 c 0.004,-0.012 0.01,-0.018 0.015,-0.018 l 0.452,-0.076 m 0.146,1.473 c 0.057,0.057 0.158,0.086 0.306,0.086 0.262,0 0.434,-0.143 0.512,-0.422 0.023,-0.084 0.035,-0.174 0.035,-0.273 0,-0.176 -0.033,-0.32 -0.102,-0.432 -0.081,-0.133 -0.204,-0.199 -0.37,-0.199 -0.132,0 -0.253,0.035 -0.36,0.102 -0.014,0.004 -0.021,0.012 -0.021,0.02 v 1.119 z"
     id="path33" /><path
     style="fill-rule:nonzero;stroke:none"
     d="m 53.348,47.635999 c 0,-0.01 -0.006,-0.018 -0.018,-0.018 l -0.295,-0.031 c -0.013,0 -0.02,-0.008 -0.02,-0.018 v -0.088 c 0.005,-0.01 0.009,-0.018 0.017,-0.018 l 0.474,-0.076 c 0.008,-0.002 0.014,-0.002 0.02,-0.002 h 0.11 c 0.012,0 0.02,0.006 0.02,0.018 v 2.469 c 0,0.01 0.004,0.016 0.018,0.018 l 0.297,0.025 c 0.014,0.002 0.02,0.008 0.02,0.021 v 0.092 c 0,0.014 -0.006,0.02 -0.02,0.02 h -0.935 c -0.013,0 -0.02,-0.006 -0.02,-0.02 v -0.092 c 0,-0.016 0.007,-0.021 0.02,-0.021 l 0.295,-0.025 c 0.012,0 0.018,-0.006 0.018,-0.018 v -2.236 z"
     id="path35" /><path
     style="fill-rule:nonzero;stroke:none"
     d="m 55.083,49.885999 c -0.159,0.145 -0.331,0.219 -0.516,0.219 -0.194,0 -0.323,-0.08 -0.392,-0.238 -0.021,-0.053 -0.032,-0.105 -0.032,-0.166 0,-0.207 0.104,-0.357 0.316,-0.455 0.063,-0.029 0.129,-0.053 0.195,-0.064 0.147,-0.031 0.282,-0.053 0.402,-0.063 v -0.289 c 0,-0.197 -0.096,-0.293 -0.288,-0.293 -0.109,0 -0.204,0.018 -0.285,0.057 -0.008,0.008 -0.014,0.018 -0.02,0.031 l -0.053,0.281 c 0,0.01 -0.006,0.016 -0.018,0.016 h -0.119 c -0.012,0 -0.018,-0.006 -0.018,-0.016 v -0.42 c 0,-0.008 0.006,-0.014 0.018,-0.02 0.199,-0.07 0.388,-0.107 0.566,-0.107 0.252,0 0.414,0.076 0.489,0.229 0.028,0.057 0.044,0.127 0.044,0.215 v 1.018 c 0,0.014 0.004,0.02 0.014,0.025 l 0.237,0.066 c 0.013,0.006 0.02,0.014 0.021,0.02 v 0.064 c -0.004,0.014 -0.012,0.02 -0.017,0.02 l -0.497,0.064 c -0.013,0 -0.02,-0.006 -0.02,-0.018 l -0.03,-0.176 m -0.023,-0.621 c -0.13,0.008 -0.227,0.021 -0.292,0.045 -0.018,0.002 -0.047,0.014 -0.09,0.027 -0.131,0.045 -0.195,0.141 -0.195,0.293 0,0.16 0.08,0.24 0.242,0.24 0.045,0 0.102,-0.012 0.169,-0.033 0.032,-0.014 0.082,-0.037 0.147,-0.068 0.011,-0.01 0.019,-0.018 0.019,-0.023 v -0.48 z"
     id="path37" /><path
     style="fill-rule:nonzero;stroke:none"
     d="m 56.52,48.410999 c 0.014,0 0.021,0.008 0.021,0.02 v 0.096 c 0,0.01 -0.006,0.014 -0.018,0.014 l -0.194,0.023 c -0.017,0 -0.021,0.008 -0.015,0.023 l 0.443,1.076 0.457,-1.076 c 0.008,-0.016 0.004,-0.023 -0.014,-0.023 l -0.195,-0.023 c -0.011,0 -0.018,-0.004 -0.018,-0.014 v -0.096 c 0,-0.012 0.008,-0.02 0.021,-0.02 h 0.605 c 0.014,0 0.02,0.008 0.02,0.02 v 0.092 c 0,0.014 -0.006,0.018 -0.02,0.018 l -0.207,0.023 c -0.006,0 -0.01,0.004 -0.014,0.01 l -0.677,1.592 c -0.243,0.57 -0.454,0.857 -0.634,0.857 -0.006,0 -0.016,-0.002 -0.025,-0.008 l -0.179,-0.178 c -0.009,-0.01 -0.011,-0.018 -0.003,-0.025 l 0.045,-0.076 c 0.006,-0.004 0.012,-0.008 0.018,-0.008 0.119,0 0.217,-0.025 0.291,-0.084 0.061,-0.043 0.124,-0.123 0.193,-0.238 0.043,-0.07 0.096,-0.178 0.157,-0.324 0.005,-0.01 0.005,-0.027 0,-0.047 l -0.614,-1.459 c -0.006,-0.008 -0.01,-0.01 -0.016,-0.01 l -0.219,-0.025 c -0.01,0 -0.015,-0.004 -0.015,-0.014 v -0.096 c 0,-0.012 0.007,-0.02 0.019,-0.02 h 0.784 z"
     id="path39" /><path
     style="fill-rule:nonzero;stroke:none"
     d="m 60.005,48.152999 c -0.013,0 -0.019,-0.004 -0.019,-0.014 l -0.075,-0.424 c 0,-0.008 -0.006,-0.014 -0.018,-0.02 -0.107,-0.049 -0.224,-0.07 -0.348,-0.07 -0.132,0 -0.242,0.035 -0.334,0.104 -0.1,0.074 -0.15,0.178 -0.15,0.303 0,0.121 0.045,0.225 0.135,0.309 0.061,0.057 0.158,0.117 0.295,0.182 l 0.246,0.109 c 0.19,0.088 0.33,0.178 0.417,0.27 0.109,0.113 0.164,0.256 0.164,0.428 0,0.252 -0.097,0.449 -0.292,0.588 -0.172,0.127 -0.39,0.188 -0.652,0.188 -0.133,0 -0.287,-0.018 -0.461,-0.057 -0.05,-0.014 -0.094,-0.025 -0.135,-0.043 -0.013,-0.004 -0.02,-0.01 -0.02,-0.018 v -0.568 c 0,-0.012 0.007,-0.02 0.02,-0.02 h 0.154 c 0.012,0.006 0.02,0.01 0.02,0.016 l 0.075,0.428 c 10e-4,0.002 0.003,0.004 0.007,0.008 l 0.009,0.01 c 0.089,0.043 0.212,0.064 0.369,0.064 0.153,0 0.284,-0.035 0.39,-0.107 0.117,-0.082 0.178,-0.197 0.178,-0.346 0,-0.207 -0.138,-0.373 -0.414,-0.502 l -0.248,-0.115 c -0.182,-0.086 -0.315,-0.174 -0.404,-0.262 -0.117,-0.117 -0.175,-0.256 -0.175,-0.414 0,-0.156 0.048,-0.297 0.145,-0.422 0.095,-0.117 0.218,-0.201 0.372,-0.254 0.099,-0.031 0.201,-0.045 0.311,-0.045 0.148,0 0.297,0.016 0.451,0.051 0.041,0.012 0.086,0.023 0.136,0.039 0.013,0.002 0.019,0.008 0.019,0.018 v 0.57 c 0,0.012 -0.006,0.018 -0.019,0.018 h -0.147 z"
     id="path41" /><path
     style="fill-rule:nonzero;stroke:none"
     d="m 61.234,48.410999 c 0.014,0 0.021,0.008 0.021,0.02 v 0.096 c 0,0.01 -0.006,0.014 -0.017,0.014 l -0.195,0.023 c -0.018,0 -0.021,0.008 -0.016,0.023 l 0.445,1.076 0.456,-1.076 c 0.008,-0.016 0.004,-0.023 -0.015,-0.023 l -0.194,-0.023 c -0.013,0 -0.018,-0.004 -0.018,-0.014 v -0.096 c 0,-0.012 0.007,-0.02 0.021,-0.02 h 0.606 c 0.014,0 0.019,0.008 0.019,0.02 v 0.092 c 0,0.014 -0.005,0.018 -0.019,0.018 l -0.208,0.023 c -0.004,0 -0.01,0.004 -0.014,0.01 l -0.676,1.592 c -0.243,0.57 -0.454,0.857 -0.634,0.857 -0.007,0 -0.017,-0.002 -0.026,-0.008 l -0.178,-0.178 c -0.008,-0.01 -0.01,-0.018 -0.004,-0.025 l 0.047,-0.076 c 0.004,-0.004 0.01,-0.008 0.018,-0.008 0.119,0 0.216,-0.025 0.29,-0.084 0.06,-0.043 0.124,-0.123 0.192,-0.238 0.043,-0.07 0.096,-0.178 0.158,-0.324 0.005,-0.01 0.005,-0.027 0,-0.047 l -0.615,-1.459 c -0.005,-0.008 -0.01,-0.01 -0.015,-0.01 l -0.22,-0.025 c -0.01,0 -0.014,-0.004 -0.014,-0.014 v -0.096 c 0,-0.012 0.006,-0.02 0.019,-0.02 h 0.784 z"
     id="path43" /><path
     style="fill-rule:nonzero;stroke:none"
     d="m 63.389,48.887999 c -0.012,-0.002 -0.018,-0.008 -0.018,-0.014 l -0.062,-0.295 c 0,-0.012 -0.004,-0.018 -0.014,-0.023 -0.061,-0.027 -0.131,-0.043 -0.209,-0.043 -0.132,0 -0.223,0.047 -0.274,0.137 -0.018,0.033 -0.028,0.068 -0.028,0.109 0,0.113 0.092,0.207 0.274,0.281 l 0.157,0.063 c 0.277,0.115 0.416,0.268 0.416,0.461 0,0.17 -0.07,0.305 -0.211,0.404 -0.125,0.092 -0.275,0.137 -0.45,0.137 -0.126,0 -0.274,-0.029 -0.444,-0.088 -0.013,-0.002 -0.02,-0.008 -0.02,-0.018 v -0.438 c 0,-0.01 0.007,-0.016 0.02,-0.016 h 0.116 c 0.013,0 0.02,0.006 0.02,0.016 l 0.06,0.301 c 0,0.006 0.006,0.012 0.016,0.023 0.086,0.039 0.176,0.061 0.267,0.061 0.218,0 0.325,-0.09 0.325,-0.273 0,-0.107 -0.057,-0.188 -0.167,-0.238 -0.018,-0.01 -0.052,-0.023 -0.101,-0.047 l -0.17,-0.068 c -0.267,-0.105 -0.399,-0.266 -0.399,-0.471 0,-0.146 0.067,-0.27 0.199,-0.365 0.114,-0.084 0.251,-0.125 0.411,-0.125 0.131,0 0.265,0.025 0.403,0.068 0.013,0.004 0.021,0.01 0.021,0.021 v 0.426 c 0,0.01 -0.008,0.014 -0.021,0.014 h -0.117 z"
     id="path45" /><path
     style="fill-rule:nonzero;stroke:none"
     d="m 64.014,48.621999 c 0,-0.012 -0.006,-0.018 -0.019,-0.018 h -0.218 c -0.013,0 -0.018,-0.006 -0.018,-0.018 v -0.02 c 0,-0.006 0.004,-0.014 0.013,-0.02 l 0.482,-0.486 c 0.012,-0.014 0.021,-0.02 0.029,-0.02 h 0.02 c 0.012,0 0.016,0.008 0.016,0.023 v 0.344 c 0,0.014 0.007,0.018 0.02,0.018 h 0.5 c 0.012,0 0.02,0.008 0.02,0.023 v 0.131 c 0,0.016 -0.008,0.023 -0.02,0.023 h -0.5 c -0.013,0 -0.02,0.006 -0.02,0.018 v 1.004 c 0,0.18 0.08,0.27 0.242,0.27 0.117,0 0.213,-0.029 0.285,-0.092 0.004,-0.004 0.012,-0.006 0.02,-0.004 0.005,0.002 0.009,0.004 0.012,0.004 l 0.049,0.096 c 0.002,0.012 -0.002,0.021 -0.012,0.025 -0.098,0.066 -0.18,0.109 -0.25,0.135 -0.094,0.029 -0.188,0.045 -0.285,0.045 -0.104,0 -0.191,-0.031 -0.261,-0.096 -0.069,-0.063 -0.105,-0.148 -0.105,-0.248 v -1.139 z"
     id="path47" /><path
     style="fill-rule:nonzero;stroke:none"
     d="m 65.432,49.193999 c 0.003,0.205 0.053,0.369 0.144,0.49 0.104,0.139 0.255,0.207 0.451,0.207 0.157,0 0.305,-0.041 0.441,-0.127 0.005,-0.006 0.01,-0.008 0.014,-0.004 0.003,0.004 0.006,0.008 0.01,0.01 l 0.053,0.092 c 0.002,0.012 -0.001,0.02 -0.01,0.025 -0.217,0.145 -0.434,0.217 -0.653,0.217 -0.245,0 -0.439,-0.078 -0.581,-0.229 -0.139,-0.146 -0.207,-0.346 -0.207,-0.592 0,-0.254 0.066,-0.465 0.203,-0.639 0.146,-0.189 0.344,-0.287 0.588,-0.287 0.219,0 0.384,0.064 0.496,0.189 0.109,0.117 0.164,0.287 0.164,0.504 0,0.041 -0.002,0.08 -0.008,0.125 0,0.012 -0.006,0.018 -0.018,0.018 h -1.087 m 0.418,-0.665 c -0.196,0 -0.323,0.109 -0.381,0.328 -0.018,0.064 -0.029,0.129 -0.034,0.189 h 0.77 c 0.014,-0.344 -0.105,-0.518 -0.354,-0.518 z"
     id="path49" /><path
     style="fill-rule:nonzero;stroke:none"
     d="m 66.82,48.451999 0.453,-0.074 c 0.014,-0.004 0.027,-0.004 0.039,-0.004 h 0.09 c 0.013,0 0.02,0.006 0.02,0.018 v 0.162 c 0.18,-0.135 0.363,-0.205 0.545,-0.205 0.186,0 0.324,0.082 0.412,0.242 0.182,-0.148 0.377,-0.225 0.589,-0.225 0.321,0 0.482,0.184 0.482,0.547 v 0.957 c 0,0.012 0.006,0.02 0.019,0.02 l 0.246,0.025 c 0.013,0 0.02,0.006 0.02,0.021 v 0.092 c 0,0.014 -0.007,0.02 -0.02,0.02 h -0.808 c -0.013,0 -0.018,-0.006 -0.018,-0.02 v -0.092 c 0,-0.016 0.005,-0.021 0.018,-0.021 l 0.22,-0.025 c 0.012,0 0.018,-0.008 0.018,-0.02 v -0.844 c 0,-0.271 -0.115,-0.408 -0.347,-0.408 -0.145,0 -0.271,0.035 -0.377,0.102 0.01,0.041 0.015,0.096 0.015,0.17 v 0.98 c 0,0.012 0.006,0.02 0.02,0.02 l 0.219,0.025 c 0.011,0 0.018,0.006 0.018,0.021 v 0.092 c 0,0.014 -0.007,0.02 -0.018,0.02 h -0.781 c -0.013,0 -0.02,-0.006 -0.02,-0.02 v -0.092 c 0,-0.016 0.007,-0.021 0.02,-0.021 l 0.221,-0.025 c 0.012,0 0.016,-0.008 0.016,-0.02 v -0.863 c 0,-0.273 -0.109,-0.406 -0.331,-0.406 -0.124,0 -0.243,0.029 -0.358,0.088 -0.006,0 -0.011,0.006 -0.018,0.014 v 1.168 c 0,0.012 0.006,0.02 0.018,0.02 l 0.219,0.025 c 0.012,0 0.02,0.006 0.02,0.021 v 0.092 c 0,0.014 -0.008,0.02 -0.02,0.02 h -0.826 c -0.014,0 -0.019,-0.006 -0.019,-0.02 v -0.092 c 0,-0.016 0.005,-0.021 0.019,-0.021 l 0.264,-0.025 c 0.014,0 0.019,-0.008 0.019,-0.02 v -1.242 c 0,-0.014 -0.005,-0.021 -0.019,-0.021 l -0.27,-0.031 c -0.014,0 -0.021,-0.004 -0.021,-0.018 v -0.086 c 0,-0.014 0.006,-0.02 0.016,-0.02 z"
     id="path51" /><path
     style="fill-rule:nonzero;stroke:none"
     d="m 0,30.397999 c 0,-0.072 0.037,-0.109 0.11,-0.109 h 6.098 c 0.073,0 0.11,0.037 0.11,0.109 v 0.582 c 0,0.074 -0.037,0.109 -0.11,0.109 l -2.021,0.188 c -0.073,0 -0.11,0.037 -0.11,0.109 v 12.898 c 0,0.074 0.037,0.109 0.11,0.109 h 5.218 c 0.073,0 0.11,-0.029 0.11,-0.088 l 0.451,-2.504 c 0,-0.059 0.037,-0.088 0.11,-0.088 h 0.835 c 0.073,0 0.11,0.037 0.11,0.109 v 3.494 c 0,0.072 -0.037,0.109 -0.11,0.109 H 0.11 c -0.073,0 -0.11,-0.037 -0.11,-0.109 v -0.582 c 0,-0.08 0.037,-0.121 0.11,-0.121 l 1.89,-0.174 c 0.073,0 0.11,-0.037 0.11,-0.109 v -12.944 c 0,-0.072 -0.037,-0.109 -0.11,-0.109 l -1.89,-0.188 c -0.073,0 -0.11,-0.035 -0.11,-0.109 v -0.582 z"
     id="path53" /><path
     style="fill-rule:nonzero;stroke:none"
     d="m 16.446,35.631999 c 0.081,0 0.121,0.037 0.121,0.109 v 0.572 c 0,0.059 -0.033,0.088 -0.099,0.088 l -1.165,0.131 c -0.103,0 -0.132,0.051 -0.088,0.154 l 2.648,6.416 2.725,-6.416 c 0.044,-0.104 0.015,-0.154 -0.088,-0.154 l -1.165,-0.131 c -0.066,0 -0.099,-0.029 -0.099,-0.088 v -0.572 c 0,-0.072 0.04,-0.109 0.121,-0.109 h 3.614 c 0.081,0 0.121,0.037 0.121,0.109 v 0.549 c 0,0.074 -0.041,0.111 -0.121,0.111 l -1.23,0.131 c -0.037,0.008 -0.066,0.029 -0.088,0.066 l -4.032,9.492 c -1.45,3.406 -2.71,5.109 -3.779,5.109 -0.044,0 -0.095,-0.016 -0.154,-0.045 l -1.066,-1.055 c -0.051,-0.051 -0.059,-0.104 -0.022,-0.154 l 0.275,-0.449 c 0.029,-0.029 0.066,-0.045 0.11,-0.045 0.71,0 1.289,-0.164 1.736,-0.494 0.352,-0.264 0.732,-0.74 1.143,-1.428 0.256,-0.426 0.571,-1.07 0.945,-1.934 0.029,-0.066 0.029,-0.162 0,-0.285 l -3.669,-8.691 c -0.029,-0.043 -0.059,-0.066 -0.088,-0.066 l -1.308,-0.152 c -0.059,0 -0.088,-0.029 -0.088,-0.088 v -0.572 c 0,-0.072 0.037,-0.109 0.11,-0.109 h 4.68 z"
     id="path55" /><path
     style="fill-rule:nonzero;stroke:none"
     d="m 30.264,35.318999 c 0.227,0 0.509,0.07 0.846,0.209 0.337,0.139 0.586,0.289 0.747,0.449 0.022,0.016 0.041,0.045 0.055,0.088 0.015,0.045 0.007,0.082 -0.022,0.111 l -1.11,1.582 c -0.051,0.072 -0.091,0.109 -0.121,0.109 -0.022,0 -0.041,-0.008 -0.055,-0.021 -0.33,-0.33 -0.692,-0.496 -1.087,-0.496 -0.491,0 -0.923,0.217 -1.296,0.648 l -0.659,0.77 c -0.059,0.066 -0.088,0.146 -0.088,0.242 v 5.34 c 0,0.064 0.037,0.102 0.11,0.109 l 1.912,0.154 c 0.08,0.006 0.121,0.047 0.121,0.119 v 0.561 c 0,0.074 -0.041,0.111 -0.121,0.111 H 23.97 c -0.081,0 -0.121,-0.037 -0.121,-0.111 v -0.561 c 0,-0.08 0.04,-0.119 0.121,-0.119 l 1.571,-0.154 c 0.073,0 0.11,-0.037 0.11,-0.109 v -7.428 c 0,-0.072 -0.037,-0.109 -0.11,-0.109 l -1.615,-0.188 c -0.081,0 -0.121,-0.037 -0.121,-0.109 v -0.515 c 0,-0.074 0.029,-0.111 0.088,-0.111 l 2.703,-0.449 c 0.08,-0.016 0.128,-0.023 0.143,-0.023 h 0.626 c 0.073,0 0.11,0.037 0.11,0.111 v 2.086 l 1.197,-1.395 c 0.513,-0.6 1.043,-0.9 1.593,-0.9 z"
     id="path57" /><path
     style="fill-rule:nonzero;stroke:none"
     d="m 32.545,45.422999 c -0.081,0 -0.121,-0.037 -0.121,-0.109 v -0.561 c 0,-0.08 0.04,-0.121 0.121,-0.121 l 1.571,-0.154 c 0.073,0 0.11,-0.035 0.11,-0.109 v -7.426 c 0,-0.074 -0.037,-0.111 -0.11,-0.111 l -1.626,-0.186 c -0.073,0 -0.11,-0.037 -0.11,-0.111 v -0.516 c 0,-0.072 0.029,-0.109 0.088,-0.109 l 2.703,-0.451 c 0.029,-0.006 0.072,-0.014 0.131,-0.021 h 0.638 c 0.073,0 0.11,0.037 0.11,0.109 v 8.822 c 0,0.074 0.036,0.109 0.109,0.109 l 1.461,0.154 c 0.08,0 0.121,0.041 0.121,0.121 v 0.561 c 0,0.072 -0.041,0.109 -0.121,0.109 h -5.076 m 2.473,-15.26 c 0.352,0 0.641,0.111 0.867,0.336 0.228,0.223 0.342,0.51 0.342,0.861 0,0.351 -0.114,0.639 -0.342,0.863 -0.227,0.223 -0.516,0.334 -0.867,0.334 -0.351,0 -0.643,-0.111 -0.874,-0.334 -0.231,-0.225 -0.346,-0.512 -0.346,-0.863 0,-0.351 0.115,-0.639 0.346,-0.861 0.23,-0.225 0.522,-0.336 0.874,-0.336 z"
     id="path59" /><path
     style="fill:#ff0000;fill-rule:nonzero;stroke:none"
     d="m 47.914,41.820999 c -0.092,1.018 -0.889,3.85 -4.5,3.85 -3.703,0 -4.555,-2.832 -4.555,-4.906 0,-3.184 1.389,-5.463 4.722,-5.463 1.556,0 4.11,0.705 4.352,3.777 h -2.63 c -0.11,-0.646 -0.518,-1.666 -1.722,-1.592 -1.63,0 -2.056,1.629 -2.056,2.852 0,1.074 0.037,3.203 2,3.203 1.314,0 1.76,-1.258 1.76,-1.721 h 2.629 z"
     id="path61" /><path
     style="fill:#ff0000;fill-rule:nonzero;stroke:none"
     d="m 58.617,45.412999 h -2.482 v -1.389 h -0.036 c -0.593,1.055 -1.63,1.646 -3,1.646 -1.944,0 -3.352,-1.109 -3.352,-3.629 v -6.48 h 2.593 v 6.111 c 0,1.518 0.889,1.814 1.685,1.814 0.853,0 2,-0.482 2,-2.24 v -5.686 h 2.593 v 9.852 z"
     id="path63" /><path
     style="fill:#ff0000;fill-rule:nonzero;stroke:none"
     d="m 69.503,42.523999 c -0.685,2.369 -2.647,3.146 -4.332,3.146 -2.777,0 -4.907,-1.332 -4.907,-5.387 0,-1.186 0.407,-4.982 4.722,-4.982 1.944,0 4.629,0.926 4.629,5.426 v 0.463 h -6.758 c 0.074,0.74 0.222,2.408 2.314,2.408 0.722,0 1.463,-0.371 1.666,-1.074 h 2.666 m -2.554,-3.019 c -0.148,-1.592 -1.166,-2.072 -2,-2.072 -1.223,0 -1.87,0.777 -2.018,2.072 h 4.018 z"
     id="path65" /></g><g
   id="g2970"
   transform="matrix(0,-0.82382984,0.81910687,0,31.885969,247.06041)"><path
     style="fill:#ff0000;fill-rule:nonzero;stroke:none"
     d="m 21.059,-14.086001 c -13.32,26.638 -16.346,42.38 0,26.031 16.347,-16.344 22.399,-19.977 22.399,-10.896 0,9.082 14.834,12.41 16.348,1.815 1.514,-10.595 -0.605,-26.033 -7.266,-19.373 -6.661,6.66 -13.016,6.055 -13.016,0.305 0,-5.753 1.664,-26.487 -3.936,-20.889 -5.601,5.6 -14.53,23.007 -14.53,23.007 z"
     id="path67" /><path
     style="fill-rule:nonzero;stroke:none"
     d="m 40.395,16.344999 c 0,3.326 -2.431,6.02 -5.431,6.02 -2.998,0 -5.43,-2.693 -5.43,-6.02 0,-3.327 2.432,-6.021 5.43,-6.021 3,0 5.431,2.695 5.431,6.021 z"
     id="path69" /></g>
<text
   xml:space="preserve"
   style="font-size:22.46347618px;font-style:normal;font-variant:normal;font-weight:bold;font-stretch:normal;text-align:start;line-height:125%;writing-mode:lr-tb;text-anchor:start;fill:#ffffff;fill-opacity:1;stroke:#000000;stroke-width:0.80226696;stroke-miterlimit:4;stroke-opacity:1;stroke-dasharray:none;font-family:Bitstream Vera Sans;-inkscape-font-specification:Bitstream Vera Sans Bold"
   x="-94.762787"
   y="42.864117"
   id="text2974"
   sodipodi:linespacing="125%"
   transform="matrix(0,-1.0028789,0.99712941,0,0,0)"><tspan
     sodipodi:role="line"
     id="tspan2976"
     x="-94.762787"
     y="42.864117"
     style="stroke-width:0.80226696">Wizard</tspan></text>

</svg>