<?xml version="1.0" encoding="UTF-8"?>
<svg xmlns="http://www.w3.org/2000/svg" xmlns:xlink="http://www.w3.org/1999/xlink" width="342pt" height="343pt" viewBox="0 0 342 343" version="1.1">
<defs>
<clipPath id="clip0">
  <rect width="342" height="343"/>
</clipPath>
</defs>
<g id="surface0" clip-path="url(#clip0)">
<path style="fill: none; stroke-width: 0.1; stroke-linecap: butt; stroke-linejoin: miter; stroke: rgb(100%,100%,100%); opacity: 1;stroke-miterlimit: 10;" d="M 0 0 L 342 0 L 342 343 L 0 343 L 0 0 Z M 0 0 " transform="matrix(1,0,0,1,0,0)"/>
<path style="stroke: none; fill-rule: nonzero; fill: rgb(100%,100%,100%); opacity: 1;" d="M 0 0 L 342 0 L 342 343 L 0 343 L 0 0 Z M 0 0 "/>
<path style="fill: none; stroke-width: 0.1; stroke-linecap: butt; stroke-linejoin: miter; stroke: rgb(0%,0%,0%); opacity: 1;stroke-miterlimit: 10;" d="M 256.006104 1.643295 C 276.847214 22.257477 297.276184 43.268768 318.064911 63.934128 C 325.544342 71.341187 332.93515 78.833466 340.255829 86.394684 C 340.244019 171.261688 340.254959 256.128555 340.250351 340.995682 C 255.125092 341.006607 170.000107 340.993851 84.874954 341.002121 C 56.801102 312.922577 28.70697 284.863434 0.65387 256.763474 C 65.220306 256.733887 129.786697 256.750107 194.353256 256.755386 C 131.02713 193.351196 67.605301 130.042267 4.285889 66.631546 C 24.853745 45.957077 45.514893 25.374786 66.130356 4.747437 C 95.400833 33.530838 124.257599 62.743774 153.342316 91.72023 C 187.559479 125.932007 221.76593 160.154419 255.989746 194.359741 C 256.01828 130.120865 255.985062 65.882141 256.006104 1.643295 Z M 256.006104 1.643295 " transform="matrix(1,0,0,1,0,0)"/>
<path style="stroke: none; fill-rule: nonzero; fill: rgb(0%,0%,0%); opacity: 1;" d="M 256.006104 1.643295 C 276.847214 22.257477 297.276184 43.268768 318.064911 63.934128 C 325.544342 71.341187 332.93515 78.833466 340.255829 86.394684 C 340.244019 171.261688 340.254959 256.128555 340.250351 340.995682 C 255.125092 341.006607 170.000107 340.993851 84.874954 341.002121 C 56.801102 312.922577 28.70697 284.863434 0.65387 256.763474 C 65.220306 256.733887 129.786697 256.750107 194.353256 256.755386 C 131.02713 193.351196 67.605301 130.042267 4.285889 66.631546 C 24.853745 45.957077 45.514893 25.374786 66.130356 4.747437 C 95.400833 33.530838 124.257599 62.743774 153.342316 91.72023 C 187.559479 125.932007 221.76593 160.154419 255.989746 194.359741 C 256.01828 130.120865 255.985062 65.882141 256.006104 1.643295 Z M 256.006104 1.643295 "/>
</g>
</svg>
