<?xml version="1.0" encoding="UTF-8" standalone="no"?>
<!-- Created with Inkscape (http://www.inkscape.org/) -->
<svg
   xmlns:dc="http://purl.org/dc/elements/1.1/"
   xmlns:cc="http://web.resource.org/cc/"
   xmlns:rdf="http://www.w3.org/1999/02/22-rdf-syntax-ns#"
   xmlns:svg="http://www.w3.org/2000/svg"
   xmlns="http://www.w3.org/2000/svg"
   xmlns:sodipodi="http://inkscape.sourceforge.net/DTD/sodipodi-0.dtd"
   xmlns:inkscape="http://www.inkscape.org/namespaces/inkscape"
   id="svg2"
   sodipodi:version="0.32"
   inkscape:version="0.43"
   width="370"
   height="433"
   sodipodi:docbase="C:\Documents and Settings\Owner\Desktop\SVG"
   sodipodi:docname="Aiga_downarrow.svg"
   version="1.0">
  <metadata
     id="metadata7">
    <rdf:RDF>
      <cc:Work
         rdf:about="">
        <dc:format>image/svg+xml</dc:format>
        <dc:type
           rdf:resource="http://purl.org/dc/dcmitype/StillImage" />
      </cc:Work>
    </rdf:RDF>
  </metadata>
  <defs
     id="defs5" />
  <sodipodi:namedview
     inkscape:window-height="543"
     inkscape:window-width="756"
     inkscape:pageshadow="2"
     inkscape:pageopacity="0.0"
     borderopacity="1.0"
     bordercolor="#666666"
     pagecolor="#ffffff"
     id="base"
     inkscape:zoom="0.86031823"
     inkscape:cx="178.47376"
     inkscape:cy="186.34129"
     inkscape:window-x="12"
     inkscape:window-y="-9"
     inkscape:current-layer="svg2" />
  <path
     id="path1312"
     d="M 96.728311,342.94065 L 7.4804068,253.68856 L 7.4804068,196.94065 C 7.4804068,165.72929 7.8191848,140.19273 8.2332468,140.19273 C 8.6473098,140.19273 38.683532,169.89273 74.980407,206.19273 C 112.00416,243.21967 141.7426,272.19273 142.72393,272.19273 C 144.37956,272.19273 144.48671,265.0372 144.72677,138.44273 L 144.98041,4.6927352 L 186.98041,4.6927352 L 228.98041,4.6927352 L 229.23406,137.94273 C 229.47413,264.06133 229.58132,271.19273 231.23692,271.19273 C 232.21813,271.19273 261.74197,242.43438 298.48041,205.69273 C 334.50226,169.66773 364.31347,140.19273 364.72755,140.19273 C 365.14162,140.19273 365.48041,165.72432 365.48041,196.92959 L 365.48041,253.66645 L 276.23802,342.92959 C 227.15471,392.02432 186.76626,432.19273 186.48593,432.19273 C 186.20559,432.19273 145.81466,392.02929 96.728311,342.94065 z "
     style="fill:#000000" />
</svg>
