<?xml version="1.0" encoding="UTF-8" standalone="no"?>
<svg
   xmlns:dc="http://purl.org/dc/elements/1.1/"
   xmlns:cc="http://web.resource.org/cc/"
   xmlns:rdf="http://www.w3.org/1999/02/22-rdf-syntax-ns#"
   xmlns:svg="http://www.w3.org/2000/svg"
   xmlns="http://www.w3.org/2000/svg"
   xmlns:sodipodi="http://sodipodi.sourceforge.net/DTD/sodipodi-0.dtd"
   xmlns:inkscape="http://www.inkscape.org/namespaces/inkscape"
   width="340.5"
   height="340.5"
   id="svg2"
   sodipodi:version="0.32"
   inkscape:version="0.45.1"
   sodipodi:docname="Aiga forwardandleftarrow.svg"
   sodipodi:docbase="/home/jirka"
   inkscape:output_extension="org.inkscape.output.svg.inkscape"
   version="1.0">
  <metadata
     id="metadata11">
    <rdf:RDF>
      <cc:Work
         rdf:about="">
        <dc:format>image/svg+xml</dc:format>
        <dc:type
           rdf:resource="http://purl.org/dc/dcmitype/StillImage" />
      </cc:Work>
    </rdf:RDF>
  </metadata>
  <defs
     id="defs9" />
  <sodipodi:namedview
     inkscape:window-height="946"
     inkscape:window-width="1272"
     inkscape:pageshadow="2"
     inkscape:pageopacity="0.0"
     guidetolerance="10.0"
     gridtolerance="10.0"
     objecttolerance="10.0"
     borderopacity="1.0"
     bordercolor="#666666"
     pagecolor="#ffffff"
     id="base"
     width="340.5px"
     height="340.5px"
     inkscape:zoom="1.7964912"
     inkscape:cx="213.75"
     inkscape:cy="213.75"
     inkscape:window-x="0"
     inkscape:window-y="0"
     inkscape:current-layer="svg2" />
  <g
     transform="translate(1,1)"
     style="fill:#000000;fill-rule:evenodd;stroke:none;stroke-width:0pt;stroke-linecap:butt;stroke-linejoin:miter;stroke-dasharray:none"
     id="g4">
    <path
       d="M 0,255 C 0,255 0,0 0,0 C 0,0 255,0 255,0 C 255,0 339,84 339,84 C 339,84 145,84 145,84 C 145,84 336,275 336,275 C 336,275 274,336 274,336 C 274,336 84,146 84,146 C 84,146 84,339 84,339 C 84,339 0,255 0,255 z "
       id="path6" />
  </g>
</svg>
