<?xml version="1.0" encoding="UTF-8" standalone="no"?>
<svg
   xmlns:dc="http://purl.org/dc/elements/1.1/"
   xmlns:cc="http://web.resource.org/cc/"
   xmlns:rdf="http://www.w3.org/1999/02/22-rdf-syntax-ns#"
   xmlns:svg="http://www.w3.org/2000/svg"
   xmlns="http://www.w3.org/2000/svg"
   xmlns:sodipodi="http://sodipodi.sourceforge.net/DTD/sodipodi-0.dtd"
   xmlns:inkscape="http://www.inkscape.org/namespaces/inkscape"
   width="341.75"
   height="342.5"
   id="svg2"
   sodipodi:version="0.32"
   inkscape:version="0.45.1"
   sodipodi:docname="Aiga forwardandrightarrow.svg"
   sodipodi:docbase="/home/jirka"
   inkscape:output_extension="org.inkscape.output.svg.inkscape"
   version="1.0">
  <metadata
     id="metadata11">
    <rdf:RDF>
      <cc:Work
         rdf:about="">
        <dc:format>image/svg+xml</dc:format>
        <dc:type
           rdf:resource="http://purl.org/dc/dcmitype/StillImage" />
      </cc:Work>
    </rdf:RDF>
  </metadata>
  <defs
     id="defs9" />
  <sodipodi:namedview
     inkscape:window-height="946"
     inkscape:window-width="1272"
     inkscape:pageshadow="2"
     inkscape:pageopacity="0.0"
     guidetolerance="10.0"
     gridtolerance="10.0"
     objecttolerance="10.0"
     borderopacity="1.0"
     bordercolor="#666666"
     pagecolor="#ffffff"
     id="base"
     width="341.75px"
     height="342.5px"
     inkscape:zoom="1.7964912"
     inkscape:cx="188.375"
     inkscape:cy="213.75"
     inkscape:window-x="0"
     inkscape:window-y="0"
     inkscape:current-layer="svg2" />
  <g
     transform="translate(2,2)"
     style="fill:#000000;fill-rule:evenodd;stroke:none;stroke-width:0pt;stroke-linecap:butt;stroke-linejoin:miter;stroke-dasharray:none"
     id="g4">
    <path
       d="M 84,0 C 84,0 339,0 339,0 C 339,0 339,255 339,255 C 339,255 255,339 255,339 C 255,339 255,145 255,145 C 255,145 64,335 64,335 C 64,335 3,274 3,274 C 3,274 192,84 192,84 C 192,84 0,84 0,84 C 0,84 84,0 84,0 z "
       id="path6" />
  </g>
</svg>
